<?xml version="1.0" standalone="no"?>
<!DOCTYPE svg PUBLIC "-//W3C//DTD SVG 20010904//EN"
 "http://www.w3.org/TR/2001/REC-SVG-20010904/DTD/svg10.dtd">
<svg version="1.0" xmlns="http://www.w3.org/2000/svg"
 width="4167.000000pt" height="4167.000000pt" viewBox="0 0 4167.000000 4167.000000"
 preserveAspectRatio="xMidYMid meet">

<g transform="translate(0.000000,4167.000000) scale(0.100000,-0.100000)"
fill="#000000" stroke="none">
<path d="M20950 38050 c-228 -42 -608 -293 -970 -642 -46 -44 -632 -658 -881
-923 -214 -229 -445 -497 -766 -891 -102 -126 -206 -252 -230 -280 -58 -68
-166 -207 -434 -559 -217 -285 -222 -291 -314 -355 -253 -176 -312 -220 -332
-248 -12 -16 -46 -43 -75 -60 -36 -20 -78 -59 -127 -116 -81 -97 -100 -112
-155 -122 -24 -4 -56 -22 -86 -49 -56 -49 -269 -212 -442 -336 -138 -99 -192
-150 -252 -234 -58 -80 -170 -185 -287 -267 -134 -95 -238 -186 -314 -275 -97
-113 -123 -157 -156 -266 -43 -137 -79 -175 -181 -192 -22 -3 -38 -12 -38 -19
0 -8 -9 -24 -19 -37 l-19 -24 -18 38 c-20 43 -19 42 -70 21 -26 -11 -51 -14
-81 -9 -24 3 -43 4 -43 2 0 -25 29 -67 60 -89 43 -30 50 -56 24 -82 -22 -22
-78 -20 -150 6 -64 23 -86 21 -103 -9 -20 -39 45 -122 192 -247 71 -59 83 -77
102 -150 19 -71 56 -144 89 -175 14 -14 26 -34 26 -47 0 -35 -24 -47 -85 -42
-77 6 -106 30 -126 104 -9 32 -34 95 -55 139 -33 68 -43 80 -64 80 -21 0 -27
-7 -38 -45 -58 -195 -71 -220 -109 -220 -34 0 -78 24 -154 86 -63 50 -67 52
-73 31 -10 -38 -6 -81 12 -113 17 -31 170 -181 344 -337 48 -43 111 -108 139
-145 29 -37 75 -90 102 -119 44 -45 48 -53 32 -59 -10 -4 -32 -2 -49 4 -45 18
-53 2 -27 -58 23 -54 22 -99 -3 -120 -11 -8 -15 -2 -20 32 -10 70 -56 135
-186 267 -114 116 -124 123 -149 115 -50 -18 -42 -63 29 -159 52 -71 63 -111
35 -139 -42 -42 -85 -27 -110 39 -18 45 -35 54 -65 35 -13 -8 -13 -12 0 -32
66 -104 66 -165 0 -233 l-29 -30 14 -70 c8 -39 15 -73 15 -77 0 -3 45 -64 99
-135 l100 -128 -30 -3 c-18 -2 -51 7 -77 20 -37 18 -53 34 -72 73 -21 40 -30
49 -48 47 -12 -2 -22 -7 -22 -12 0 -22 94 -381 115 -439 13 -36 23 -66 22 -67
-1 -1 -11 -4 -22 -6 -18 -3 -29 23 -100 233 -72 211 -84 241 -123 284 -50 57
-65 101 -61 179 4 57 3 58 -42 105 -37 38 -55 71 -88 157 -44 114 -79 182
-105 204 -14 11 -15 9 -3 -26 8 -22 24 -81 37 -132 19 -80 21 -99 11 -133 -7
-21 -16 -39 -22 -39 -14 0 -77 138 -125 273 -21 59 -41 107 -45 107 -3 0 -10
-10 -16 -22 -13 -29 47 -320 81 -393 13 -27 57 -110 99 -184 70 -123 108 -211
136 -318 13 -47 53 -77 94 -71 23 3 28 28 14 78 -8 32 4 53 27 44 25 -10 53
-71 90 -201 41 -145 57 -183 100 -243 28 -39 32 -51 23 -63 -15 -19 -71 -37
-112 -37 l-33 0 19 37 c10 21 19 52 19 70 0 35 -46 159 -62 169 -18 12 -29
-20 -27 -81 2 -84 2 -84 -26 -97 -41 -18 -70 9 -84 80 -6 33 -20 71 -30 84
-10 12 -33 52 -51 87 -37 69 -57 87 -122 105 -39 12 -44 17 -59 62 -9 27 -19
75 -23 107 -6 53 -5 57 14 57 13 0 28 -12 38 -30 23 -41 32 -38 32 13 0 35
-10 57 -58 128 -43 62 -64 105 -77 157 l-19 72 -24 -23 c-31 -28 -54 -80 -46
-104 3 -10 17 -40 31 -66 19 -37 25 -64 25 -110 -1 -60 -17 -185 -26 -194 -2
-2 -12 16 -21 41 -15 39 -16 52 -5 96 23 97 5 188 -45 230 -41 34 -65 125 -84
326 -14 141 -32 200 -76 251 -28 34 -107 83 -131 83 -4 0 -3 -19 0 -42 6 -35
16 -51 57 -86 90 -80 96 -128 19 -171 -47 -26 -80 -27 -122 -1 -49 30 -62 27
-54 -12 31 -152 29 -329 -4 -371 l-18 -22 -46 33 -46 33 -10 -26 c-26 -68 -6
-123 60 -165 47 -30 90 -93 104 -153 6 -25 3 -29 -38 -46 -24 -11 -47 -25 -51
-32 -5 -7 -9 -109 -10 -228 -1 -167 -7 -249 -24 -361 -13 -82 -23 -200 -24
-272 l-2 -128 -26 0 c-34 0 -49 -18 -55 -67 -12 -91 -23 -102 -59 -63 -16 18
-17 26 -5 94 25 148 -15 237 -137 299 -18 10 -36 17 -42 17 -5 0 -17 -25 -25
-54 -20 -69 -32 -76 -40 -25 -7 42 -48 95 -66 84 -6 -3 -10 -26 -10 -50 0 -35
5 -48 26 -64 15 -12 32 -21 39 -21 7 0 15 -20 19 -48 3 -27 17 -97 31 -158 16
-68 25 -140 25 -192 0 -79 -1 -84 -29 -107 -15 -14 -33 -37 -39 -52 -6 -16
-13 -104 -16 -198 -4 -123 -12 -202 -29 -285 -25 -119 -28 -124 -84 -129 -19
-2 -20 42 -2 69 33 52 39 96 46 355 l6 263 -26 26 c-61 61 -128 7 -77 -62 29
-39 43 -140 35 -257 -4 -55 -9 -108 -11 -117 -6 -21 -47 -24 -90 -8 -32 13
-83 -1 -109 -30 -9 -10 -30 -23 -46 -29 -43 -15 -55 12 -69 158 -12 129 -36
216 -69 245 -18 17 -19 16 -25 -11 -16 -84 -17 -110 -5 -184 9 -57 10 -86 2
-97 -16 -27 -69 -26 -127 2 -71 35 -114 82 -130 144 l-14 51 63 21 c83 27 103
49 87 94 -19 51 -14 116 14 181 14 33 29 85 32 115 l7 55 18 -26 c13 -19 21
-59 27 -134 4 -59 12 -111 18 -117 16 -16 44 71 50 152 5 85 -6 119 -64 207
-58 88 -77 168 -87 386 -4 74 -3 86 9 76 8 -6 14 -20 14 -30 0 -11 10 -29 21
-40 19 -19 23 -20 30 -6 5 8 8 76 7 150 -3 153 1 165 72 186 46 14 73 48 68
88 -3 25 -7 28 -45 31 l-41 3 0 42 c1 61 -12 78 -96 124 l-75 41 -10 -31 c-14
-40 -14 -132 1 -234 10 -69 10 -93 -2 -140 -8 -31 -20 -58 -26 -60 -21 -7 -55
95 -63 192 -8 100 -20 125 -56 125 -29 0 -38 -34 -29 -106 6 -53 -9 -124 -27
-124 -14 0 -48 74 -55 119 -9 56 16 117 65 164 27 25 48 37 68 37 29 0 30 2
63 118 65 230 89 328 90 370 0 39 -2 42 -27 42 -21 0 -40 13 -75 52 l-47 53
-15 -37 c-23 -54 -33 -110 -45 -239 -12 -131 -24 -172 -76 -261 -52 -88 -83
-189 -94 -308 -5 -57 -8 -107 -5 -111 2 -4 0 -19 -6 -33 -9 -24 -14 -26 -47
-21 -21 3 -45 1 -53 -4 -19 -13 -16 -74 14 -356 13 -121 27 -255 31 -299 8
-101 36 -255 80 -436 34 -144 35 -145 15 -164 -11 -11 -21 -18 -23 -15 -2 2
-34 119 -70 259 -42 163 -68 286 -72 340 -13 168 -45 402 -79 563 -38 179 -54
247 -61 247 -13 0 -39 -73 -60 -170 -13 -60 -31 -122 -39 -137 -17 -32 -83
-99 -91 -92 -3 3 6 39 20 79 29 86 51 196 59 294 l6 69 -23 -20 c-12 -12 -41
-30 -64 -42 l-42 -21 2 -77 c1 -65 -3 -88 -26 -141 -73 -166 -76 -315 -10
-462 31 -69 70 -181 84 -240 18 -77 48 -265 42 -270 -9 -9 -41 39 -57 85 -9
25 -23 66 -32 92 -9 25 -31 62 -49 82 -40 44 -43 55 -54 170 -6 66 -13 97 -27
112 -16 18 -19 18 -27 4 -5 -9 -7 -47 -5 -83 3 -66 3 -67 -24 -70 -45 -5 -49
16 -46 276 3 233 2 238 -22 296 -14 32 -29 58 -35 58 -19 -2 -28 -77 -29 -222
0 -149 16 -281 55 -452 l20 -87 -21 -65 c-29 -85 -25 -170 11 -220 25 -36 99
-99 106 -92 2 2 -1 31 -8 64 -10 49 -10 63 0 76 20 24 74 20 99 -7 24 -25 50
-114 59 -202 3 -35 16 -77 29 -101 30 -50 30 -69 2 -88 -29 -21 -52 -7 -73 46
-49 124 -115 94 -115 -52 0 -65 -21 -100 -59 -100 -27 0 -35 16 -33 69 1 37
-6 59 -37 111 -38 66 -55 75 -90 47 -20 -17 -8 -91 23 -138 39 -58 52 -133 37
-220 -15 -89 -46 -156 -82 -174 -26 -14 -30 -13 -56 9 -66 55 -154 74 -187 40
-21 -21 -20 -49 4 -119 11 -32 20 -70 20 -85 0 -63 -98 -198 -135 -184 -8 3
-30 26 -50 50 -34 41 -40 44 -83 44 -136 0 -285 39 -542 139 -230 91 -354 114
-538 100 -79 -6 -92 -14 -92 -61 0 -38 30 -62 133 -105 81 -33 147 -80 147
-104 0 -5 -15 -9 -34 -9 -19 0 -45 -9 -60 -21 -28 -22 -28 -22 -21 -115 7 -86
6 -93 -14 -110 -11 -10 -21 -21 -21 -25 0 -12 89 -29 207 -39 130 -11 158 -17
221 -49 37 -19 43 -26 40 -49 -3 -27 -3 -27 -78 -24 -41 1 -118 9 -170 18
l-95 16 -20 -28 c-59 -83 -96 -94 -226 -69 -77 15 -92 16 -100 4 -5 -8 -9 -10
-9 -5 0 5 -6 3 -14 -3 -7 -6 -16 -36 -19 -67 -3 -30 -13 -67 -22 -81 -16 -24
-20 -25 -80 -19 -34 3 -70 4 -79 0 -9 -3 -23 -30 -31 -58 -17 -59 -53 -99
-129 -143 -59 -34 -71 -51 -62 -87 9 -36 30 -42 72 -22 34 16 37 15 92 -11 44
-21 72 -28 122 -28 60 0 72 4 138 44 88 53 137 68 273 80 85 7 117 15 165 39
49 24 69 29 119 26 40 -2 63 -8 70 -18 13 -20 6 -25 -61 -42 -62 -17 -155 -60
-219 -104 -30 -20 -75 -34 -179 -54 -77 -15 -178 -41 -225 -58 -224 -78 -230
-79 -294 -46 -66 34 -144 31 -234 -11 -70 -32 -74 -33 -157 -26 l-86 7 -42
-36 c-55 -48 -120 -77 -248 -114 -58 -17 -127 -39 -155 -49 -117 -43 -89 -128
47 -141 54 -5 74 6 83 47 12 57 37 68 235 105 102 20 216 45 255 56 38 11 80
20 92 20 27 0 83 -46 83 -69 0 -18 -44 -89 -68 -108 -23 -19 -66 -16 -112 8
-53 28 -96 21 -168 -26 -30 -20 -140 -86 -246 -147 l-191 -110 -87 1 -88 2
-43 -41 c-24 -22 -70 -52 -103 -67 -55 -26 -69 -28 -199 -29 -183 -2 -210 -12
-385 -144 -41 -31 -80 -60 -87 -64 -16 -9 -53 28 -53 53 0 31 48 80 85 87 19
3 42 15 51 26 34 37 9 51 -147 82 l-144 28 -74 -17 c-148 -35 -167 -55 -116
-125 14 -19 25 -38 25 -42 0 -17 -98 -7 -175 18 -89 29 -158 29 -197 0 -13 -9
-45 -32 -72 -51 -26 -19 -74 -42 -105 -50 -31 -9 -190 -59 -353 -112 -208 -68
-295 -100 -287 -108 5 -5 49 -10 97 -10 78 1 97 5 177 39 132 56 200 76 257
76 l51 0 -39 -29 c-21 -15 -70 -54 -109 -85 -38 -31 -95 -69 -125 -84 -51 -25
-63 -27 -170 -25 -103 2 -119 0 -155 -20 -21 -12 -54 -42 -71 -67 -101 -140
-130 -154 -252 -122 -62 16 -89 18 -127 11 -42 -8 -155 -52 -155 -61 0 -2 37
-3 83 -3 96 0 138 -17 279 -109 89 -58 100 -73 72 -96 -12 -11 -27 -9 -85 10
-79 26 -160 25 -203 -3 -29 -19 -25 -47 6 -47 27 0 58 -18 58 -34 0 -20 -30
-43 -90 -66 -72 -27 -92 -51 -78 -90 5 -17 26 -44 46 -60 l36 -30 -21 -22
c-35 -39 -43 -65 -49 -150 -3 -46 -12 -103 -20 -127 -30 -94 -15 -135 66 -183
68 -41 72 -61 27 -115 -19 -23 -40 -55 -47 -72 -7 -17 -17 -31 -22 -31 -5 0
-28 15 -51 34 -23 19 -58 43 -77 53 -33 18 -43 31 -95 115 -11 17 -35 41 -53
51 l-32 19 35 -78 c93 -205 284 -455 417 -546 19 -13 28 -32 37 -80 38 -196
137 -585 212 -833 112 -370 367 -1101 398 -1139 5 -6 20 -42 34 -81 14 -38 41
-106 60 -150 19 -44 37 -89 41 -99 11 -32 16 -12 6 25 -5 18 -23 91 -40 162
-56 240 -160 531 -285 797 -61 129 -64 138 -64 214 -1 101 -26 206 -101 426
-52 153 -95 318 -86 327 2 2 39 -33 82 -77 43 -45 95 -90 115 -100 32 -17 37
-25 48 -76 6 -32 20 -77 31 -100 22 -44 98 -120 169 -166 22 -15 41 -35 41
-44 0 -8 -18 -33 -40 -55 -45 -44 -44 -43 -30 -70 14 -26 62 -25 86 2 32 35
55 43 164 50 58 5 136 14 173 22 47 10 67 11 64 3 -2 -6 -45 -36 -95 -66 -127
-76 -127 -78 -33 -72 79 4 80 4 92 -22 11 -22 9 -35 -9 -79 -12 -29 -22 -65
-22 -81 0 -36 50 -85 106 -105 55 -19 104 -50 104 -66 0 -21 -36 -36 -65 -29
-58 14 -107 -24 -85 -66 6 -11 16 -20 23 -20 7 0 36 -11 64 -25 59 -27 65 -43
35 -95 -16 -30 -16 -31 3 -46 20 -15 30 -18 98 -29 40 -6 59 -31 36 -46 -8 -5
-51 -9 -95 -9 -65 0 -87 -4 -105 -19 -22 -18 -22 -19 -6 -45 10 -14 26 -26 35
-26 10 0 39 -7 65 -16 58 -20 121 -86 177 -187 23 -42 53 -86 67 -97 34 -26
98 -26 190 1 39 12 79 19 87 16 19 -7 30 -66 22 -112 -9 -49 -112 -175 -148
-182 -23 -4 -28 -11 -28 -33 0 -36 13 -40 115 -40 46 0 95 -4 108 -9 31 -12
51 -66 42 -114 -10 -53 13 -70 85 -62 52 6 60 4 79 -16 l22 -24 -26 -7 c-15
-4 -72 -11 -128 -17 -56 -6 -123 -18 -149 -26 -44 -16 -139 -87 -128 -98 3 -2
50 9 105 24 188 55 299 48 396 -23 l44 -33 -40 -3 c-22 -2 -76 2 -121 8 -45 7
-96 10 -115 6 -47 -8 -104 -45 -92 -57 11 -11 116 -25 283 -38 125 -10 163
-25 228 -85 32 -30 72 -54 118 -72 88 -33 133 -67 152 -116 14 -35 18 -38 54
-38 56 0 164 -29 200 -54 22 -15 34 -34 43 -68 22 -86 52 -97 150 -52 56 26
58 26 152 14 159 -21 748 8 1118 56 1225 158 1785 224 1845 218 41 -4 96 0
150 10 47 8 137 18 200 21 140 8 205 25 276 72 46 31 58 34 78 25 24 -11 39
-42 27 -59 -17 -25 -135 -84 -205 -103 -43 -11 -94 -29 -114 -39 l-36 -18 24
-13 c26 -14 79 -10 185 15 97 23 275 23 400 1 55 -10 106 -23 113 -29 16 -13
15 -42 -3 -77 -22 -43 -10 -63 34 -56 20 3 68 10 108 15 83 11 109 23 118 51
8 27 1 37 -46 60 -49 26 -50 48 -3 99 48 54 107 81 176 81 77 0 88 16 54 74
-27 46 -94 106 -118 106 -8 0 -23 -19 -34 -42 -24 -54 -81 -90 -204 -129 -65
-21 -124 -32 -188 -36 -134 -9 -153 6 -167 128 -9 81 -28 97 -102 81 -63 -13
-83 -5 -83 33 0 27 15 41 55 51 17 4 65 29 108 56 176 110 287 123 411 46 35
-21 70 -33 118 -39 78 -10 124 -30 133 -59 3 -11 10 -20 14 -20 21 0 94 31
128 54 21 15 48 26 60 26 21 0 22 -3 16 -48 -6 -51 8 -92 30 -92 7 0 37 16 67
35 72 45 100 46 100 4 0 -49 -61 -104 -125 -113 -98 -15 -143 -54 -129 -114 4
-15 22 -62 41 -105 30 -68 33 -82 24 -109 -24 -68 -7 -109 51 -123 61 -15 98
27 98 114 0 76 29 103 159 147 122 41 148 41 173 -2 l18 -31 -37 -47 c-22 -27
-82 -77 -139 -116 -56 -38 -118 -88 -138 -112 l-37 -43 32 -3 c50 -5 114 25
218 103 53 40 114 81 136 92 44 22 105 39 105 28 0 -4 -26 -33 -57 -66 -50
-53 -59 -68 -78 -142 -12 -45 -26 -90 -30 -99 -6 -16 0 -18 52 -18 66 0 88
-15 114 -80 21 -53 76 -108 114 -116 60 -11 54 -65 -5 -56 -17 2 -69 -4 -115
-13 l-85 -18 -57 35 c-82 51 -138 67 -305 89 -81 11 -159 24 -173 29 -43 16
-90 12 -110 -10 -16 -17 -16 -24 -5 -65 18 -63 5 -87 -63 -119 -75 -35 -111
-79 -103 -125 6 -41 46 -81 79 -81 12 1 126 38 252 84 127 46 231 80 232 77 1
-3 4 -23 8 -43 7 -45 48 -96 90 -114 18 -7 77 -16 134 -20 l101 -7 -87 -50
c-103 -58 -123 -74 -123 -97 0 -41 24 -42 121 -8 88 30 169 83 169 110 0 22
57 88 93 108 43 24 223 46 243 29 6 -5 16 -27 23 -49 12 -41 49 -70 91 -70 11
0 23 -7 27 -16 5 -15 -31 -257 -59 -386 -9 -46 -11 -48 -43 -48 -19 0 -36 4
-39 8 -3 5 -10 37 -15 72 -14 84 -38 110 -103 110 -26 0 -66 -7 -88 -16 -33
-13 -46 -14 -66 -5 -14 6 -49 11 -79 11 -46 0 -57 -4 -74 -26 -23 -29 -19 -46
15 -69 27 -17 31 -46 9 -65 -11 -9 -27 -9 -70 0 -75 15 -114 51 -122 108 -6
47 -6 47 -32 30 -15 -9 -35 -8 -96 7 -82 19 -106 18 -308 -9 -115 -16 -182
-11 -252 18 -53 22 -61 21 -114 -22 -25 -22 -99 -74 -163 -116 -65 -42 -118
-81 -118 -86 0 -18 45 -21 91 -7 l47 14 -34 -70 c-45 -94 -44 -136 2 -196 2
-2 67 58 146 133 114 109 144 132 146 117 4 -27 -28 -98 -70 -153 -32 -41 -35
-51 -31 -94 6 -60 -12 -86 -96 -143 -68 -47 -160 -144 -212 -225 -35 -53 -79
-152 -79 -177 0 -6 89 75 198 179 218 210 289 274 407 369 80 64 230 169 274
193 l23 12 -23 -44 c-12 -23 -83 -102 -155 -174 -87 -85 -133 -137 -132 -150
4 -53 -48 -120 -230 -299 -263 -258 -666 -694 -754 -818 l-21 -29 52 27 c29
14 82 44 119 67 106 65 178 95 281 119 105 24 146 41 205 88 50 40 93 41 128
4 58 -61 61 -115 13 -247 -37 -102 -45 -166 -22 -166 32 0 111 31 133 51 21
20 24 31 24 101 0 65 3 81 20 98 11 11 25 20 32 20 6 0 34 14 61 32 35 23 75
65 133 144 113 152 177 204 256 204 40 0 47 -5 108 -68 124 -128 136 -132 407
-137 289 -5 361 -28 474 -154 34 -38 76 -76 93 -83 17 -7 65 -13 106 -14 41 0
118 -4 170 -8 79 -7 102 -5 140 9 86 33 110 31 217 -18 54 -25 116 -51 137
-57 53 -17 160 -7 219 20 73 33 138 36 242 10 134 -32 165 -30 228 13 130 89
251 125 443 130 127 4 116 -1 167 71 17 25 19 25 54 11 19 -8 44 -15 55 -15
36 0 204 112 304 203 74 67 120 100 180 128 92 44 139 90 150 145 9 48 -7 78
-57 110 -101 63 -144 62 -154 -3 -12 -72 -15 -83 -37 -102 -12 -11 -44 -28
-72 -37 -83 -26 -123 -58 -155 -122 -53 -105 -79 -107 -131 -12 -57 105 -99
83 -65 -34 16 -56 14 -106 -5 -106 -5 0 -27 18 -49 40 -22 22 -49 40 -60 40
-18 0 -20 -7 -23 -77 -4 -97 -22 -108 -62 -39 -28 48 -51 66 -86 66 -11 0 -84
-33 -161 -72 -123 -64 -143 -78 -160 -110 -22 -43 -40 -47 -69 -18 -24 24 -25
35 -5 90 18 50 13 76 -17 86 -27 8 -38 -6 -72 -88 -16 -38 -31 -68 -35 -68 -3
0 -15 7 -25 15 -27 20 -56 19 -117 -6 -74 -28 -110 -23 -131 21 -10 19 -19 39
-21 45 -2 6 -25 0 -53 -13 -55 -26 -66 -24 -132 23 -38 28 -42 34 -42 75 0 25
5 82 11 127 10 70 10 88 -5 133 -30 91 -5 105 60 35 63 -70 91 -63 144 34 l25
46 115 0 c145 0 165 9 204 94 33 73 57 84 111 52 20 -12 38 -21 41 -21 15 0
-2 66 -37 142 -23 49 -39 92 -36 95 3 3 32 8 64 12 41 5 70 15 93 33 20 15 48
31 63 37 40 15 73 -19 82 -85 11 -69 19 -80 67 -88 117 -20 104 -23 130 30 13
26 29 50 36 52 7 2 34 -20 60 -50 83 -94 168 -178 181 -178 10 0 11 13 5 53
-13 81 -9 109 16 129 20 16 46 18 301 18 297 0 325 -4 336 -47 7 -31 -4 -42
-58 -54 -24 -6 -49 -15 -56 -21 -36 -30 9 -107 105 -181 l59 -46 25 27 c40 43
58 87 66 163 l7 70 55 -41 c146 -110 198 -110 363 2 31 21 85 65 120 97 79 74
93 81 164 81 140 1 239 80 295 234 30 80 96 150 158 166 l45 11 0 115 0 115
-39 32 c-21 18 -82 76 -135 129 -65 66 -119 110 -169 138 -146 82 -182 109
-182 135 0 14 6 25 13 25 7 0 72 -33 143 -74 72 -41 155 -82 185 -93 30 -10
58 -24 62 -31 19 -30 53 -52 79 -52 16 0 55 14 88 30 56 28 63 29 105 19 94
-24 111 1 96 134 -11 94 -32 122 -113 151 -68 24 -138 64 -138 80 0 7 25 23
55 35 31 13 83 43 115 67 33 24 66 44 73 44 7 0 28 -11 47 -25 61 -45 79 -37
192 81 102 105 161 182 193 255 17 37 17 41 0 78 -24 55 -41 58 -78 15 -43
-49 -57 -54 -161 -71 -140 -21 -131 -22 -134 15 -3 29 1 34 32 47 19 8 54 15
76 15 l40 0 0 51 c0 42 -5 55 -28 79 -40 40 -159 74 -231 67 -111 -12 -120 28
-23 105 101 82 122 91 242 97 97 6 150 20 150 40 0 4 -11 18 -25 31 -33 31
-59 102 -51 141 3 17 22 54 42 81 l37 49 -39 -7 c-66 -11 -101 -41 -166 -138
-73 -111 -86 -126 -108 -126 -28 0 -193 123 -224 167 l-29 42 18 40 c25 57 17
146 -24 245 -17 44 -29 86 -26 94 4 10 20 13 63 10 53 -3 57 -2 60 20 8 57
-57 135 -123 148 -19 3 -35 9 -35 13 0 19 49 51 78 51 17 0 50 7 72 16 49 20
59 48 34 95 -30 57 -25 142 14 219 19 36 41 71 50 78 24 18 65 15 145 -14 152
-55 202 -56 262 -3 26 23 40 48 55 99 25 83 49 114 126 159 106 62 107 62 96
73 -6 6 -43 14 -82 18 -77 8 -90 17 -90 63 0 34 29 47 104 47 29 0 61 6 71 14
19 14 19 15 1 34 -19 22 -93 42 -155 42 -23 0 -48 8 -62 19 -20 16 -22 23 -14
47 13 36 46 42 113 20 26 -9 91 -20 144 -24 123 -12 132 -18 124 -94 -6 -64
10 -94 48 -85 12 3 59 13 106 22 159 31 202 57 242 143 27 57 77 96 149 116
64 19 87 41 131 131 13 28 50 91 81 142 31 50 57 101 57 112 0 12 -9 35 -21
50 -35 48 -36 106 0 176 16 32 28 61 26 63 -2 3 -25 -8 -50 -23 -58 -33 -86
-28 -110 21 -25 54 -14 76 63 128 101 67 157 119 149 139 -3 9 -33 30 -66 46
-73 37 -84 61 -46 101 15 16 40 34 56 40 16 7 29 17 29 22 0 19 -30 64 -64 97
-20 19 -36 40 -36 47 0 7 28 17 67 24 70 12 111 29 132 54 10 12 9 17 -8 25
-11 6 -35 11 -55 11 -40 0 -52 12 -30 31 30 24 38 55 45 159 4 58 14 130 23
161 12 41 14 70 8 110 l-8 54 -49 0 c-47 0 -50 2 -53 27 -3 24 1 28 40 37 96
24 92 21 99 83 4 39 19 80 52 139 24 46 52 112 61 146 20 80 43 125 107 209
50 66 50 68 40 110 -6 24 -11 61 -11 84 0 57 -14 77 -60 91 l-40 12 45 48 c39
42 45 54 45 91 0 87 31 147 157 299 35 43 63 79 63 80 0 2 -25 4 -56 4 -83 0
-88 15 -41 110 23 47 37 90 37 114 0 36 -5 46 -65 127 -29 40 -30 87 -2 130
31 48 82 173 73 181 -3 3 -18 1 -32 -6 -20 -9 -30 -9 -40 0 -23 19 -17 34 36
97 28 33 50 67 50 75 0 29 -44 65 -94 77 -124 29 -146 76 -156 329 -8 201 -16
238 -69 315 -77 112 -238 200 -416 227 -111 17 -136 43 -73 75 28 14 41 15 94
5 69 -13 90 -8 97 20 4 15 0 19 -24 19 -16 0 -46 7 -67 15 -29 12 -45 13 -66
5 -46 -17 -146 -12 -196 11 -76 34 -170 101 -186 131 -15 30 -11 67 10 80 6 4
57 8 113 8 110 0 137 11 131 54 -2 16 -12 23 -43 28 -22 3 -79 20 -126 37 -51
18 -159 43 -265 61 -99 17 -212 39 -252 50 -40 11 -91 20 -115 20 -59 0 -79
15 -32 24 27 5 57 27 113 80 42 40 87 78 99 85 27 14 73 14 107 1 20 -7 26 -6
26 3 0 32 -26 45 -95 50 -53 3 -103 17 -205 57 -172 67 -239 79 -312 58 -29
-8 -62 -19 -73 -23 -31 -12 74 92 111 110 18 8 51 15 74 15 l43 0 -42 45 c-56
61 -56 94 2 133 23 16 62 40 87 52 l45 23 -35 13 c-53 19 -94 17 -222 -13
l-118 -27 -25 24 c-55 52 -23 116 118 235 65 55 117 115 117 136 0 4 -15 3
-32 -2 -18 -5 -73 -18 -121 -28 -87 -18 -89 -19 -141 -77 -37 -40 -87 -79
-160 -122 -117 -69 -176 -116 -176 -138 0 -8 10 -25 23 -37 17 -18 48 -26 150
-42 70 -10 133 -25 139 -32 7 -9 7 -22 -2 -43 -18 -44 -53 -49 -111 -17 -26
15 -56 27 -67 27 -29 0 -52 -37 -52 -83 0 -50 -15 -77 -43 -77 -31 0 -47 18
-47 53 0 15 -5 37 -11 48 -9 18 -17 20 -67 13 -69 -8 -76 -14 -109 -78 -40
-80 -61 -84 -141 -29 -60 41 -46 44 -147 -24 -54 -36 -91 -41 -135 -18 -43 22
-49 69 -24 172 5 18 -2 26 -43 46 -66 34 -85 58 -134 162 -23 50 -43 92 -45
94 -1 2 -20 -15 -42 -38 -21 -23 -46 -41 -55 -41 -24 0 -56 35 -77 84 -21 45
-45 71 -101 104 -65 39 -115 105 -174 228 -31 66 -68 133 -81 151 -19 24 -23
39 -18 60 11 46 72 159 105 198 29 32 35 35 88 35 67 0 92 18 123 87 21 48 33
48 54 -3 17 -42 44 -44 73 -7 25 30 21 49 -19 108 -40 58 -57 118 -75 258 -8
69 -18 132 -21 140 -8 22 13 57 59 96 46 40 76 100 77 151 0 19 -9 71 -19 115
-27 113 -36 198 -22 223 11 20 13 20 48 6 27 -12 53 -14 99 -9 86 9 134 -6
179 -56 50 -55 65 -96 65 -173 0 -52 3 -64 14 -60 8 3 17 24 20 48 13 83 73
190 196 346 37 47 79 103 94 124 25 37 25 40 10 58 -25 27 -76 23 -114 -8 -39
-33 -66 -86 -75 -147 -6 -38 -15 -53 -43 -77 -44 -36 -57 -37 -78 -5 -32 49
-15 77 187 326 153 188 195 233 212 231 133 -17 172 0 272 118 71 84 159 150
200 150 29 0 16 -49 -25 -94 -43 -47 -72 -95 -64 -108 13 -20 41 -3 96 57 99
107 220 155 438 170 52 4 118 13 147 20 66 17 91 11 129 -32 l30 -35 45 38
c50 42 113 73 147 74 28 0 92 -28 92 -41 0 -4 -17 -11 -37 -14 -104 -18 -158
-50 -204 -123 -30 -48 -38 -90 -16 -97 6 -2 31 -9 55 -15 55 -14 63 -35 26
-66 -45 -39 -83 -53 -116 -43 -29 8 -57 3 -59 -10 0 -3 -2 -37 -3 -76 -3 -92
-24 -131 -137 -253 -61 -66 -113 -137 -164 -222 -41 -69 -71 -126 -66 -128 13
-4 70 25 104 54 15 13 63 65 106 117 44 52 89 97 100 100 25 6 61 -18 61 -42
0 -9 -18 -35 -41 -56 -53 -52 -66 -79 -83 -167 -8 -40 -19 -85 -25 -100 -6
-16 -8 -28 -5 -28 19 0 99 52 149 96 109 98 226 146 394 163 90 10 102 14 256
91 88 44 171 80 182 80 12 0 34 -11 49 -24 l28 -23 -55 -18 c-198 -66 -368
-184 -476 -330 -41 -55 -43 -60 -27 -72 10 -7 32 -13 50 -13 l32 0 -15 -31
c-21 -42 -12 -86 32 -155 53 -83 55 -115 10 -189 -80 -131 -88 -165 -40 -165
13 0 36 -5 51 -10 24 -9 26 -14 21 -45 -7 -43 -79 -196 -136 -288 l-41 -68 36
-34 c35 -34 36 -37 30 -87 -19 -173 -20 -163 7 -221 31 -67 58 -85 93 -63 13
9 31 27 40 40 8 14 29 29 46 35 l31 11 -7 -47 c-6 -47 -16 -68 -100 -205 -78
-128 -52 -146 102 -69 97 49 172 102 172 123 0 5 -6 24 -13 41 -8 18 -21 53
-30 79 l-16 48 61 57 c135 129 307 390 378 575 85 221 118 534 89 837 l-11
116 -44 47 c-50 53 -53 74 -24 140 17 40 18 50 7 88 l-12 43 -38 -47 c-21 -25
-43 -43 -49 -40 -6 4 -19 27 -30 51 -27 62 -18 103 34 152 48 47 44 65 -13 56
-49 -8 -69 6 -69 50 0 18 -7 52 -15 75 -20 58 -19 80 7 107 21 22 21 25 6 56
-14 30 -20 33 -49 29 -30 -4 -32 -3 -24 19 4 13 9 42 10 64 1 22 21 98 44 169
136 425 233 960 256 1421 14 286 13 276 50 370 175 438 535 1466 671 1915 36
118 76 249 89 290 119 374 259 988 306 1337 27 202 30 482 6 591 -50 226 -172
326 -357 292z m-1246 -4890 c32 -17 72 -30 88 -30 30 0 102 32 113 50 4 7 19
8 38 4 18 -4 61 -10 96 -13 l64 -6 14 -49 c8 -26 12 -54 9 -62 -3 -8 -23 -21
-46 -30 -22 -9 -40 -22 -40 -30 0 -7 14 -29 30 -47 35 -40 38 -62 11 -76 -28
-15 -33 -39 -15 -73 8 -16 14 -32 12 -34 -2 -2 -28 3 -58 11 -77 21 -99 19
-109 -7 -11 -28 5 -48 65 -83 83 -49 104 -107 63 -174 l-21 -34 22 -29 c18
-24 19 -29 5 -34 -27 -11 -80 5 -158 46 -75 40 -137 52 -137 28 0 -12 19 -44
52 -90 10 -14 9 -24 -5 -53 -9 -20 -17 -55 -17 -79 0 -40 4 -48 46 -85 26 -23
52 -41 58 -41 6 0 -12 -15 -39 -34 -50 -33 -75 -69 -75 -106 0 -11 -7 -20 -15
-20 -26 0 -52 36 -70 95 -10 36 -26 66 -42 79 -14 11 -49 42 -78 69 -57 52
-65 55 -65 29 0 -10 18 -33 40 -51 67 -53 57 -78 -57 -142 -36 -20 -66 -48
-100 -96 -93 -130 -131 -148 -213 -100 l-40 22 -102 -53 c-90 -46 -110 -52
-162 -52 -63 0 -186 18 -186 27 0 19 43 32 105 33 87 0 103 9 87 45 -18 38
-15 79 8 107 22 28 113 85 238 147 135 68 201 144 202 232 0 71 92 142 184
144 97 1 101 31 16 119 -73 77 -77 100 -20 139 34 24 42 22 83 -18 37 -36 60
-38 72 -7 5 12 -8 30 -44 62 -57 50 -63 72 -26 96 24 16 25 18 9 35 -9 10 -37
30 -60 44 -48 28 -52 39 -28 73 23 33 44 27 115 -30 103 -82 150 -93 179 -38
15 27 4 44 -43 70 -79 43 -137 83 -137 95 0 8 20 36 25 35 0 0 27 -14 59 -30z
m-2305 -1033 c17 -21 -68 -226 -206 -499 -91 -178 -137 -285 -198 -453 -225
-626 -329 -1013 -400 -1490 -14 -93 -33 -203 -41 -243 -30 -145 -97 -352 -114
-352 -17 0 -40 44 -40 76 0 17 11 87 25 155 14 68 46 237 71 374 52 291 100
509 144 661 27 91 209 625 309 904 17 47 31 100 31 119 0 24 53 135 192 397
106 200 198 364 204 364 6 0 17 -6 23 -13z m1864 -1126 c-10 -15 -40 -52 -67
-82 l-49 -54 6 37 c7 46 33 86 72 109 46 29 61 25 38 -10z m-5967 -660 c21
-72 39 -93 78 -89 30 3 31 4 29 51 -3 48 9 87 27 87 16 0 43 -105 43 -165 -1
-38 -11 -88 -27 -135 -37 -106 -22 -137 79 -156 20 -3 39 -13 42 -21 3 -8 0
-45 -6 -81 -11 -61 -11 -72 8 -126 31 -88 28 -131 -12 -169 -18 -18 -47 -40
-65 -49 l-32 -17 0 -83 c0 -96 -12 -120 -65 -138 -45 -15 -49 -34 -22 -105 19
-51 27 -60 50 -63 31 -4 47 25 47 83 0 49 35 85 89 92 l44 6 -7 -52 c-4 -29
-25 -98 -47 -152 -21 -55 -43 -129 -48 -163 -5 -35 -14 -73 -20 -84 -17 -32
-13 -51 14 -64 19 -9 29 -8 48 5 39 25 58 80 72 214 11 100 19 134 40 168 35
60 43 62 61 18 31 -73 30 -139 -5 -241 -40 -116 -37 -124 61 -156 53 -16 71
-125 39 -230 -28 -90 -27 -187 4 -346 l24 -125 -25 -20 c-14 -11 -37 -42 -52
-69 -49 -90 -53 -79 -50 146 2 228 -10 386 -32 413 -33 39 -98 38 -115 -2 -4
-10 -10 -54 -14 -98 l-6 -80 -30 0 c-26 0 -31 5 -42 43 -7 24 -28 61 -47 82
-47 52 -60 104 -60 233 0 59 -2 107 -4 107 -8 0 -119 -80 -135 -98 -10 -11
-21 -39 -24 -63 l-6 -42 -19 38 c-22 41 -26 112 -9 143 16 29 14 88 -4 123 -9
16 -33 42 -55 58 l-39 28 26 24 c45 42 53 77 53 226 0 109 6 174 30 308 16 94
30 186 30 206 0 42 23 88 115 227 74 113 75 118 6 150 -50 23 -84 95 -89 184
-3 37 -1 75 2 84 11 27 34 -2 52 -65z m483 -584 c5 -18 11 -60 13 -95 4 -59 3
-62 -16 -56 -32 9 -68 54 -63 78 24 104 32 124 44 115 6 -6 16 -25 22 -42z
m-69 -194 c0 -51 -28 -165 -44 -175 -19 -13 -43 -9 -67 11 l-23 18 26 44 c14
24 31 61 37 81 7 20 22 49 33 63 26 33 38 20 38 -42z m193 -132 c4 -4 11 -32
14 -62 4 -46 2 -57 -16 -73 -29 -26 -51 -6 -51 45 0 21 -4 41 -10 44 -5 3 -10
20 -10 37 0 29 2 30 32 24 18 -3 36 -10 41 -15z m-97 -110 c9 -57 39 -158 80
-271 46 -130 56 -233 29 -304 -10 -25 -21 -46 -26 -46 -14 0 -39 98 -60 235
-26 170 -43 238 -78 305 -30 59 -28 92 7 133 15 17 17 17 29 1 7 -10 15 -34
19 -53z m-984 -821 c-2 -14 -6 -63 -9 -110 -5 -85 -19 -120 -49 -120 -29 0
-60 98 -49 156 13 74 116 145 107 74z m1185 -505 c-5 -51 -46 -147 -68 -161
-8 -5 -10 17 -8 78 4 73 8 90 33 128 25 38 30 41 38 25 6 -10 8 -41 5 -70z
m-131 -1 c14 -33 14 -41 -2 -90 -9 -30 -20 -54 -24 -54 -8 0 -30 45 -30 61 0
18 31 119 36 119 3 0 12 -16 20 -36z m4831 -724 c38 -68 61 -79 108 -51 20 11
43 21 51 21 26 0 103 -137 139 -244 41 -126 68 -181 131 -266 l49 -65 9 -115
c16 -210 12 -282 -24 -430 -22 -88 -35 -170 -38 -234 l-4 -98 -54 -75 c-30
-42 -91 -137 -136 -212 -133 -222 -176 -281 -277 -381 -100 -100 -177 -149
-291 -185 -30 -10 -91 -36 -135 -58 -103 -51 -178 -77 -227 -77 -28 0 -46 -7
-64 -25 -14 -14 -27 -25 -30 -25 -3 0 -17 -9 -31 -20 -41 -32 -60 -26 -68 19
l-6 39 -103 0 c-160 0 -288 29 -537 122 -219 81 -331 161 -424 300 -81 121
-116 243 -140 472 -14 143 -14 144 10 238 14 52 25 107 25 121 0 14 16 51 35
83 19 32 35 61 35 64 0 3 35 39 79 81 62 61 82 86 95 128 18 55 29 63 82 63
72 0 96 -33 113 -155 16 -118 37 -169 90 -228 54 -59 62 -72 129 -218 40 -87
62 -120 122 -183 80 -84 195 -166 305 -218 127 -59 251 -41 399 57 223 148
337 345 425 735 16 74 43 171 59 215 16 44 37 122 47 173 17 88 17 95 0 138
-12 31 -31 55 -59 75 -52 38 -65 62 -66 121 0 38 6 54 29 80 42 49 68 105 85
191 9 42 16 79 16 82 0 15 22 -10 47 -55z m-5997 -251 c0 -5 -4 -9 -10 -9 -5
0 -10 7 -10 16 0 8 5 12 10 9 6 -3 10 -10 10 -16z m5191 -139 c27 -15 24 -42
-8 -72 -45 -41 -236 -128 -283 -128 -30 0 -75 42 -67 62 9 24 117 81 215 114
109 37 115 38 143 24z m-7407 -1165 c63 -63 1 -124 -195 -190 -94 -32 -105
-34 -125 -20 -13 8 -29 25 -35 37 -10 19 -8 25 22 51 54 45 251 135 301 137 9
0 23 -7 32 -15z m-1379 -165 c60 -14 85 -48 85 -119 0 -56 1 -59 30 -71 86
-36 117 -91 130 -233 5 -56 13 -115 16 -132 10 -47 99 -230 145 -298 55 -81
138 -177 153 -177 7 0 29 -23 50 -50 52 -68 162 -168 229 -208 103 -62 189
-86 307 -87 77 0 120 5 160 19 174 59 313 167 432 336 82 117 139 251 183 432
28 117 69 212 103 239 30 23 70 24 119 4 48 -20 76 -19 115 5 61 37 113 25
215 -51 73 -55 117 -125 159 -254 31 -95 35 -118 30 -170 -25 -237 -107 -442
-253 -637 -92 -122 -137 -161 -298 -260 -198 -122 -284 -181 -350 -242 -57
-54 -60 -55 -75 -37 -36 45 -94 52 -182 22 -51 -18 -72 -19 -249 -11 -206 9
-259 16 -461 56 -189 37 -317 84 -416 152 -73 49 -90 57 -135 58 -49 2 -52 4
-83 50 -18 26 -98 114 -179 196 -140 141 -149 148 -187 148 -21 0 -48 5 -59
11 -18 9 -20 17 -14 59 l7 49 -51 32 c-69 42 -85 74 -86 174 -1 77 -2 83 -43
145 -64 96 -86 179 -80 299 5 84 12 113 57 235 28 76 69 176 90 221 35 75 41
82 63 78 15 -3 42 4 64 16 34 19 50 21 129 16 50 -3 108 -10 130 -15z m-770
-277 c3 -32 12 -94 20 -138 44 -238 44 -239 105 -243 63 -4 76 -25 39 -62 -16
-15 -29 -35 -29 -43 0 -8 20 -37 44 -64 37 -41 45 -56 44 -89 0 -51 40 -262
58 -295 7 -15 34 -39 59 -53 25 -15 45 -29 45 -31 0 -3 -17 -13 -37 -23 -62
-31 -139 -45 -224 -40 -65 4 -91 11 -146 39 -41 21 -76 47 -89 66 l-22 33 22
81 21 81 -24 19 c-14 11 -44 25 -68 32 -24 6 -43 14 -43 17 0 3 19 20 43 36
82 58 86 111 11 128 -110 25 -114 26 -120 51 -4 16 0 35 10 50 26 39 20 63
-18 79 -19 8 -68 46 -109 85 -47 45 -86 73 -106 77 -42 9 -28 25 60 69 64 33
119 83 119 109 0 56 142 74 204 25 35 -27 24 -45 -41 -64 -61 -18 -63 -29 -12
-62 19 -12 42 -29 52 -37 41 -37 61 1 58 108 -2 83 12 116 50 116 14 0 19 -11
24 -57z m-2465 13 c31 -27 55 -38 133 -55 87 -20 187 -67 187 -88 0 -5 -34 -6
-77 -5 -42 2 -96 -2 -120 -9 -54 -15 -140 -69 -212 -135 -52 -47 -57 -49 -110
-48 -37 1 -75 11 -111 28 -67 31 -98 32 -152 5 -39 -20 -41 -22 -23 -35 10 -8
36 -13 58 -12 61 2 85 -42 51 -91 -17 -23 -18 -23 -158 -17 -78 3 -168 10
-201 14 l-60 7 110 72 c192 125 292 166 427 178 99 9 133 21 164 58 24 28 26
37 21 89 -4 47 -2 60 11 68 23 13 20 14 62 -24z m12691 -638 c12 -18 33 -43
47 -55 24 -21 25 -23 12 -70 -20 -72 -21 -73 -124 -71 -75 1 -99 -2 -125 -18
-50 -29 -72 -81 -77 -187 -7 -143 -9 -144 -285 -102 -249 37 -339 71 -381 141
-15 25 -41 45 -91 70 -77 39 -87 37 -87 -24 0 -22 -9 -42 -26 -59 l-25 -25
-22 20 c-12 11 -50 36 -84 56 -69 40 -79 54 -89 115 -4 23 -15 53 -26 66 -17
22 -27 25 -83 25 -56 0 -64 3 -70 21 -9 27 14 52 78 84 65 32 87 31 145 -2 38
-23 61 -28 117 -29 39 -1 74 -3 78 -3 4 -1 15 -17 23 -36 8 -19 25 -42 38 -50
21 -14 28 -14 67 0 133 49 200 53 235 14 23 -25 43 -24 214 11 100 21 167 41
215 65 81 41 92 42 145 15 22 -11 44 -20 49 -20 6 0 22 18 36 40 32 51 64 54
96 8z m-6359 -856 c17 -17 -58 -196 -105 -250 -40 -47 -44 -68 -14 -86 15 -9
25 -3 67 42 42 45 52 52 69 43 26 -14 27 -19 20 -114 -5 -72 -12 -95 -59 -192
-47 -98 -62 -119 -144 -200 -50 -50 -126 -122 -170 -160 -86 -75 -112 -118
-96 -160 13 -35 24 -32 55 21 38 64 65 74 109 40 38 -29 40 -27 50 25 8 45 45
81 119 113 32 14 72 37 89 51 45 38 78 33 126 -19 46 -50 57 -77 42 -105 -13
-26 -34 -37 -137 -72 -96 -32 -134 -56 -174 -111 -22 -32 -26 -44 -18 -59 13
-26 42 -24 95 7 24 14 77 34 116 44 98 25 116 33 162 69 36 29 44 31 117 31
48 0 79 -4 79 -10 0 -27 -33 -84 -73 -127 -58 -64 -77 -93 -77 -120 0 -31 26
-30 86 2 32 17 55 23 73 19 39 -10 62 -34 59 -63 -3 -24 -7 -26 -59 -26 -42
-1 -63 -7 -90 -25 -42 -29 -49 -39 -49 -67 0 -31 16 -37 66 -23 35 10 47 10
59 0 24 -20 18 -44 -20 -83 -47 -49 -45 -75 10 -137 72 -81 72 -119 0 -200
-72 -81 -62 -100 56 -101 70 -1 96 4 145 24 l59 25 3 -41 c6 -98 21 -107 91
-57 39 28 43 29 69 16 15 -8 40 -28 56 -45 26 -27 28 -33 18 -56 -18 -40 -101
-124 -152 -153 -43 -26 -51 -27 -157 -24 -102 3 -116 1 -152 -20 -33 -19 -41
-20 -55 -8 -25 20 -15 52 24 77 86 56 81 64 -32 57 -97 -7 -148 -26 -176 -65
-7 -10 -17 -19 -22 -19 -16 0 -29 59 -19 92 20 73 1 99 -47 63 -10 -8 -26 -15
-34 -15 -8 0 -32 -9 -53 -20 -44 -24 -83 -26 -91 -4 -24 63 13 100 144 144 88
29 171 82 237 148 58 59 67 94 26 100 -16 2 -48 -21 -121 -92 -62 -59 -111
-97 -128 -101 -16 -3 -46 -10 -67 -16 -45 -12 -67 0 -67 37 0 30 73 162 120
217 l34 40 -42 -5 c-23 -4 -93 0 -155 8 -61 8 -142 14 -180 14 -65 0 -68 1
-87 33 -32 51 -23 78 36 107 27 15 68 40 90 58 70 56 175 79 208 46 17 -17 24
-40 28 -94 3 -32 7 -28 63 79 40 75 79 135 117 174 l56 60 -77 -6 c-108 -7
-135 -23 -204 -121 -14 -20 -27 -26 -55 -26 -39 0 -67 14 -114 58 l-28 26 0
-35 c0 -95 -38 -139 -118 -139 -53 0 -75 18 -76 65 -1 37 -2 38 -76 67 -55 22
-84 28 -110 24 -97 -17 -172 -18 -247 -1 -118 26 -136 42 -93 85 19 19 22 19
50 5 45 -24 89 -18 170 21 55 27 89 37 128 38 59 1 59 1 11 75 -58 89 -119
102 -228 50 -117 -55 -190 -69 -401 -80 -270 -15 -360 -10 -431 23 -59 27 -93
64 -123 135 -10 23 -35 57 -55 76 -20 19 -44 46 -54 61 -22 31 -45 33 -81 5
-20 -16 -26 -29 -26 -60 0 -38 26 -79 51 -79 17 0 79 -31 79 -40 0 -14 -105
-53 -147 -54 -57 -1 -88 29 -113 115 -40 133 -71 150 -275 159 -83 4 -159 11
-170 17 -23 13 -58 3 384 113 179 44 332 80 342 80 27 0 31 -16 14 -56 -8 -20
-15 -40 -15 -45 0 -17 31 -9 63 15 55 42 86 49 227 50 152 2 161 5 324 110
175 113 216 131 406 176 65 15 117 38 220 96 74 42 158 83 187 92 39 13 55 24
63 43 18 41 62 78 105 87 56 12 254 7 267 -6z m64 -2277 c15 -38 -6 -64 -78
-100 -78 -38 -106 -43 -114 -20 -15 37 6 65 74 99 74 38 110 44 118 21z m5766
-737 c23 -11 33 -54 22 -87 -11 -29 -50 -47 -86 -38 -22 6 -26 13 -32 68 -3
34 -3 65 0 70 6 10 68 2 96 -13z m-4749 -814 c15 -15 24 -30 21 -35 -11 -18
-88 -8 -147 18 -69 31 -61 41 39 42 53 1 65 -2 87 -25z m661 -2095 c7 -30 5
-41 -14 -67 -14 -19 -25 -52 -30 -94 -4 -34 -15 -80 -24 -100 -21 -49 -20
-125 3 -222 14 -59 16 -86 9 -107 -15 -45 -31 -35 -51 32 -24 83 -31 172 -18
244 20 117 67 330 75 343 14 23 41 8 50 -29z m443 -616 c-16 -29 -97 -83 -97
-63 0 17 35 81 72 130 l33 45 3 -42 c2 -23 -3 -54 -11 -70z"/>
<path d="M10528 23004 c-27 -13 -48 -28 -48 -32 0 -9 182 -94 188 -88 6 7 -26
99 -44 124 -19 28 -37 27 -96 -4z"/>
<path d="M11652 22874 c-34 -24 -27 -68 11 -72 42 -5 79 23 75 56 -2 22 -9 28
-33 30 -16 1 -40 -5 -53 -14z"/>
<path d="M2252 36110 c-207 -27 -368 -95 -506 -215 -216 -189 -343 -471 -407
-905 -19 -132 -23 -198 -23 -440 -1 -342 13 -535 65 -900 69 -488 203 -1128
339 -1620 28 -102 62 -223 74 -270 140 -510 491 -1576 681 -2070 24 -63 65
-173 91 -245 103 -287 417 -1070 608 -1513 125 -291 139 -319 193 -380 142
-161 225 -275 364 -499 129 -206 286 -599 344 -860 24 -108 46 -260 60 -424
l6 -76 -45 -12 c-54 -13 -116 -65 -141 -118 -23 -48 -16 -191 15 -283 49 -150
240 -492 248 -447 2 10 -8 71 -22 137 -34 156 -34 155 7 130 47 -29 67 -26 67
10 0 16 14 71 31 121 27 78 31 100 26 155 -7 69 -7 68 52 107 69 45 75 63 81
221 7 193 11 201 206 375 82 73 152 139 156 145 4 7 0 23 -9 35 -14 20 -21 22
-61 16 -42 -6 -45 -5 -32 10 18 22 60 43 134 67 78 26 112 50 127 93 15 42 35
44 103 15 35 -16 50 -18 65 -10 37 19 36 48 -3 90 -20 22 -36 44 -36 49 0 17
30 33 53 27 13 -3 31 0 41 7 16 12 15 14 -8 36 -21 20 -34 23 -78 21 -132 -7
-161 2 -156 49 3 24 9 27 78 39 100 17 152 11 203 -25 58 -41 87 -51 207 -72
58 -11 114 -23 125 -27 l20 -7 -20 22 c-32 36 -94 63 -159 68 -69 6 -119 30
-158 78 -25 30 -31 32 -71 28 -27 -3 -47 -1 -51 6 -10 16 -79 14 -102 -4 -28
-21 -73 -18 -119 8 l-40 23 0 89 c0 79 -3 96 -28 142 -15 29 -27 59 -27 68 0
18 -11 19 -34 2 -15 -11 -16 -18 -5 -60 10 -42 9 -50 -6 -67 -24 -27 -41 -25
-61 6 -10 14 -43 42 -73 63 -51 33 -56 40 -59 78 -2 29 4 56 21 90 32 62 54
184 40 216 -11 24 -125 97 -152 97 -44 0 -51 -40 -20 -100 31 -59 12 -123 -49
-166 -16 -11 -17 -7 -14 46 5 73 -15 113 -68 140 -51 26 -176 52 -211 45 -18
-4 -43 2 -76 19 -26 14 -60 28 -75 31 -65 16 -99 106 -59 157 12 14 41 34 66
44 62 23 59 44 -5 44 -38 0 -52 4 -60 19 -17 33 -9 231 10 231 4 0 45 -28 91
-61 46 -34 112 -75 145 -91 54 -25 71 -29 135 -26 61 2 74 6 77 20 4 23 -37
109 -83 172 -51 71 -53 88 -16 160 23 46 31 74 31 114 0 59 -14 92 -71 167
-21 27 -56 94 -80 148 l-42 97 -36 -61 c-49 -84 -98 -119 -165 -119 -62 0 -85
14 -177 109 -65 67 -67 71 -48 82 17 9 25 7 43 -10 12 -12 27 -21 33 -21 6 0
12 32 15 73 8 120 68 207 186 266 23 12 42 26 42 32 0 6 6 7 13 4 6 -4 -8 12
-33 35 -101 93 -199 165 -279 203 -83 40 -85 41 -235 48 -83 4 -163 12 -177
19 -15 7 -42 31 -62 55 -23 27 -64 57 -115 83 -90 47 -168 103 -204 147 -45
53 -61 98 -69 187 -12 131 -42 174 -144 203 -74 22 -115 71 -115 139 0 25 5
36 19 41 33 10 71 46 71 66 0 10 -15 36 -34 56 -48 55 -59 79 -46 103 14 26
22 25 51 -6 39 -42 77 -54 157 -47 82 7 132 -8 265 -77 119 -61 207 -54 237
21 14 33 8 146 -10 179 -16 30 -112 97 -217 152 -130 69 -163 115 -163 229 0
73 -29 106 -139 160 -106 52 -135 81 -152 154 -15 66 -41 107 -87 137 -52 35
-77 42 -154 43 -98 1 -100 7 -45 122 81 170 63 236 -95 342 -71 48 -74 102 -8
136 101 52 196 15 214 -84 12 -67 41 -97 145 -150 54 -28 103 -56 108 -63 6
-7 18 -40 28 -72 26 -82 92 -189 215 -344 57 -73 122 -162 145 -200 47 -79
108 -124 190 -143 43 -9 61 -10 81 0 24 10 25 15 18 49 -11 53 -7 90 17 157
17 50 20 82 20 182 -1 93 5 159 25 270 23 127 25 165 20 266 -5 93 -3 124 9
146 30 59 137 131 194 131 23 0 34 -7 45 -29 8 -15 36 -52 61 -82 42 -49 54
-76 70 -151 7 -35 49 -64 74 -52 10 5 41 38 67 73 60 79 108 108 157 92 18 -6
60 -39 94 -74 40 -41 90 -77 144 -106 l82 -44 49 18 c39 14 51 15 63 5 36 -30
7 -96 -103 -230 -86 -105 -93 -152 -23 -143 59 8 117 -25 191 -107 56 -64 65
-70 100 -70 29 0 50 9 84 35 49 37 127 78 220 115 33 13 100 51 150 84 113 74
204 113 415 177 91 28 203 66 249 85 45 19 88 34 96 34 21 0 48 -36 44 -61 -2
-18 -15 -25 -66 -39 -35 -10 -73 -26 -85 -37 -27 -25 -65 -37 -181 -58 -110
-20 -168 -39 -220 -73 -23 -15 -57 -32 -76 -37 -33 -10 -35 -13 -40 -63 -7
-61 -21 -75 -70 -67 -101 18 -120 18 -126 1 -3 -9 1 -28 11 -42 9 -14 15 -35
13 -47 -3 -19 -8 -22 -44 -19 -60 4 -106 -19 -180 -89 -64 -62 -73 -83 -54
-120 16 -28 52 -24 129 16 119 62 139 48 127 -88 -5 -58 -3 -78 11 -106 30
-58 60 -73 167 -82 110 -9 155 -27 196 -78 33 -39 41 -71 44 -158 l1 -58 47
-22 c94 -45 85 -81 -40 -164 -281 -190 -422 -441 -462 -829 -9 -95 -50 -250
-71 -276 -16 -20 -45 -17 -105 7 -67 28 -112 20 -165 -28 -28 -26 -44 -51 -55
-91 -15 -51 -15 -66 -1 -174 13 -98 24 -137 67 -237 28 -66 54 -141 59 -166 5
-26 13 -50 17 -55 5 -4 74 -63 154 -132 164 -139 250 -203 334 -248 61 -32
193 -76 202 -67 15 15 -34 72 -94 111 -75 48 -132 107 -132 136 0 17 4 18 26
10 45 -18 62 -29 131 -91 66 -59 112 -88 162 -104 l24 -7 -24 33 c-43 61 -150
168 -203 203 -29 19 -78 44 -108 56 -59 22 -86 46 -113 100 -10 19 -31 50 -46
68 -35 39 -36 59 -8 114 16 31 20 53 16 86 -4 35 -1 48 14 63 39 39 94 15 170
-73 59 -69 172 -146 302 -208 121 -58 257 -111 257 -101 0 4 -16 26 -36 50
-24 28 -65 57 -123 86 -82 41 -141 90 -154 128 -8 21 -12 20 93 2 131 -23 183
-42 241 -85 29 -22 64 -40 76 -40 29 0 45 36 47 100 1 45 1 45 -54 71 -78 38
-115 82 -155 183 l-34 87 61 -55 c74 -68 177 -119 373 -186 82 -29 163 -58
180 -66 63 -30 -104 113 -251 216 -185 128 -296 214 -354 274 -42 44 -43 46
-20 46 14 0 63 14 110 30 106 38 139 38 206 -1 58 -33 88 -32 99 2 4 12 -2 33
-15 54 -14 23 -23 58 -27 107 -3 40 -10 81 -15 91 -10 19 -26 20 -145 1 -34
-5 -45 -2 -62 15 -26 26 -27 72 -3 93 9 9 35 25 57 36 62 31 80 57 79 111 0
25 -8 61 -18 79 -10 19 -16 35 -14 37 2 2 41 -14 87 -36 79 -37 85 -38 130
-27 72 17 98 34 142 94 50 68 90 94 147 94 53 0 97 -19 146 -65 27 -24 53 -37
90 -44 28 -5 85 -23 126 -39 83 -33 188 -58 198 -47 15 15 -81 85 -142 104
-36 11 -62 25 -64 34 -2 8 10 30 26 48 l29 33 39 -16 c325 -134 432 -185 532
-253 40 -27 71 -31 105 -14 50 27 48 50 -5 82 -56 33 -142 124 -205 218 -67
99 -134 163 -239 230 -110 69 -236 160 -231 165 9 9 169 -55 236 -95 39 -23
124 -81 188 -129 203 -152 348 -242 386 -242 20 0 48 35 42 51 -3 8 -52 41
-108 74 -186 110 -343 221 -281 199 10 -4 81 -36 158 -71 170 -80 239 -95 328
-72 60 16 60 16 89 -8 24 -21 32 -23 44 -13 8 7 15 25 15 40 0 23 -26 53 -137
161 -272 264 -319 316 -301 335 18 18 114 -56 348 -270 144 -131 273 -244 287
-251 51 -26 100 17 89 78 -9 50 -85 158 -133 190 -43 28 -53 53 -31 75 17 17
70 -9 116 -57 27 -29 47 -41 67 -41 27 0 27 2 22 41 -5 37 -22 69 -79 140 -23
30 -19 58 13 77 17 11 25 11 45 -3 13 -8 24 -21 24 -29 0 -26 57 -97 106 -133
27 -19 78 -49 112 -66 58 -27 67 -29 102 -18 46 13 100 72 100 107 0 14 -8 41
-19 62 -10 20 -21 51 -25 67 -4 17 -21 51 -37 76 -44 69 -54 104 -39 139 7 17
16 30 19 30 17 0 53 -65 67 -118 8 -31 38 -95 66 -142 29 -47 64 -114 79 -150
14 -37 33 -66 42 -68 9 -2 66 13 126 32 127 41 165 44 246 16 32 -11 59 -20
61 -20 5 0 -90 166 -129 225 -51 76 -116 155 -128 155 -5 0 -9 -16 -9 -35 0
-23 -6 -38 -16 -42 -22 -8 -32 6 -49 70 -18 71 -51 136 -104 207 -66 90 -602
598 -682 649 -68 42 -236 192 -315 280 -27 30 -67 58 -128 87 -48 24 -93 50
-100 58 -72 92 -368 284 -746 486 -85 45 -204 114 -264 153 -207 133 -310 180
-991 451 -262 104 -457 175 -592 215 -111 33 -210 64 -220 69 -10 5 -35 12
-55 16 -36 7 -73 40 -62 58 13 21 112 5 286 -47 230 -70 314 -91 408 -105 161
-23 248 -52 349 -118 31 -19 119 -61 197 -93 180 -73 345 -156 674 -339 146
-80 301 -166 345 -190 116 -64 577 -373 670 -449 44 -36 136 -115 204 -175
143 -125 227 -188 291 -221 34 -17 53 -36 72 -72 31 -57 45 -70 112 -109 27
-15 130 -106 229 -201 99 -95 213 -195 253 -222 46 -31 119 -98 201 -186 177
-188 216 -236 278 -340 29 -49 68 -103 85 -120 18 -16 48 -55 68 -85 42 -65
47 -70 89 -70 36 0 42 7 63 69 8 25 21 46 28 49 7 2 23 -19 38 -53 27 -59 28
-85 8 -222 -5 -37 -3 -43 21 -59 46 -30 59 -12 66 97 6 97 21 144 76 239 l27
45 13 -50 c7 -28 13 -73 13 -101 0 -36 5 -56 18 -67 23 -21 65 -22 81 -3 6 8
25 67 42 132 49 192 70 228 166 290 104 67 111 136 32 360 -28 82 -70 210 -94
284 -49 160 -64 191 -107 224 -48 35 -96 41 -178 21 -51 -13 -99 -16 -175 -13
-81 3 -105 1 -105 -9 0 -23 -47 -14 -64 12 -28 43 -49 47 -107 24 -107 -42
-208 -23 -272 51 -27 32 -37 37 -64 33 -34 -5 -38 -2 -201 141 -20 18 -26 19
-59 6 -48 -17 -88 -15 -118 4 -14 9 -33 16 -43 16 -10 0 -63 42 -117 93 -191
177 -823 735 -1125 992 -96 82 -177 153 -180 156 -6 7 -212 180 -401 336 -68
56 -160 132 -204 168 -44 37 -120 97 -170 135 -49 38 -99 77 -110 87 -43 40
-537 419 -770 590 -721 528 -1297 891 -1850 1163 -446 219 -749 327 -1095 390
-133 24 -343 33 -448 20z m1018 -1029 c0 -12 -35 -20 -51 -11 -8 6 -3 10 17
13 16 2 30 5 32 6 1 0 2 -3 2 -8z m6950 -3890 c14 -28 12 -67 -4 -80 -23 -19
-51 30 -47 82 1 23 38 22 51 -2z m-7369 -2126 c24 -28 97 -102 162 -165 123
-119 152 -158 142 -190 -7 -22 -73 -80 -92 -80 -18 0 -43 -41 -43 -69 0 -23
-1 -24 -16 -9 -9 9 -32 77 -50 150 -43 168 -101 288 -183 381 -73 82 -83 108
-50 143 l23 24 32 -67 c17 -38 51 -91 75 -118z m518 -884 c36 -38 95 -90 129
-116 38 -28 78 -70 98 -102 21 -32 53 -65 80 -81 l44 -28 -41 -27 c-54 -36
-84 -34 -166 9 -94 50 -117 55 -175 43 -45 -10 -52 -9 -73 11 -18 17 -22 29
-18 54 3 22 -2 47 -17 77 -29 55 -61 168 -53 183 20 36 38 46 81 46 43 0 49
-4 111 -69z"/>
<path d="M33152 34332 c33 -35 58 -71 63 -91 4 -20 15 -35 28 -40 51 -20 49
21 -5 115 l-43 73 -49 1 -49 0 55 -58z"/>
<path d="M33250 34382 c0 -6 4 -14 10 -17 5 -3 42 -51 80 -105 46 -64 79 -102
94 -106 31 -7 80 18 108 57 13 17 49 44 80 60 58 29 88 60 88 91 0 16 -13 18
-153 18 -85 0 -188 3 -230 6 -53 5 -77 4 -77 -4z"/>
<path d="M34918 32225 c-4 -4 -92 -11 -195 -15 -219 -9 -274 -23 -407 -103
-45 -26 -114 -62 -154 -79 -153 -64 -282 -168 -398 -323 -270 -358 -418 -685
-473 -1046 -11 -74 -30 -159 -42 -189 -17 -43 -20 -69 -16 -120 3 -41 0 -89
-10 -130 -8 -36 -15 -103 -16 -150 -1 -99 17 -144 80 -201 38 -35 163 -93 222
-105 35 -7 181 -128 181 -150 0 -24 36 -52 82 -64 24 -7 52 -20 63 -30 29 -27
105 -60 140 -60 17 0 59 -14 94 -30 177 -84 346 -124 464 -109 40 5 223 15
408 24 185 8 371 21 413 29 127 25 197 65 306 175 106 108 266 335 326 466 69
150 109 370 102 568 -3 99 -5 108 -30 134 -37 38 -63 102 -83 203 -18 91 -34
128 -71 173 -13 16 -24 36 -24 46 0 22 109 78 115 59 2 -7 9 -38 16 -68 17
-75 52 -110 112 -110 l44 0 7 -63 c3 -34 22 -107 42 -161 114 -320 94 -581
-70 -916 -63 -127 -78 -146 -148 -192 -27 -17 -55 -43 -63 -59 -15 -28 -20
-71 -9 -81 12 -13 156 91 201 145 168 199 227 286 274 402 55 138 71 217 72
360 1 144 -7 184 -75 402 -22 72 -38 138 -35 147 12 29 56 39 119 27 72 -15
93 -5 109 48 17 59 4 104 -47 162 -25 28 -90 111 -145 185 -55 73 -119 149
-142 168 -211 174 -264 216 -350 273 -58 39 -133 78 -186 98 -113 42 -184 88
-282 181 -44 42 -87 74 -98 74 -11 0 -32 -11 -47 -25 -34 -31 -42 -31 -107 3
-45 23 -66 27 -157 30 -58 2 -108 0 -112 -3z m-560 -1315 c12 -12 22 -26 22
-32 0 -33 -126 -191 -212 -267 -20 -18 -52 -36 -70 -42 -40 -11 -91 -12 -86
-1 2 4 23 44 47 89 31 57 51 83 67 87 13 4 47 39 79 81 82 109 110 124 153 85z
m276 -289 c37 -41 -15 -106 -107 -133 -51 -15 -71 -3 -75 46 -4 45 9 63 63 87
53 24 97 24 119 0z"/>
<path d="M4100 31977 c-35 -18 -34 -58 1 -71 37 -13 81 17 77 53 -4 31 -38 39
-78 18z"/>
<path d="M27360 31331 c-88 -28 -189 -86 -310 -177 -62 -47 -136 -101 -166
-121 -30 -20 -54 -37 -54 -38 0 -2 9 -22 20 -46 25 -56 25 -110 0 -160 -11
-21 -68 -91 -126 -155 -111 -121 -150 -185 -133 -215 15 -28 26 -31 70 -18 37
12 43 11 55 -6 8 -10 14 -25 14 -33 0 -8 -39 -53 -88 -101 -66 -65 -106 -116
-165 -212 -71 -117 -77 -131 -77 -181 0 -41 5 -59 19 -72 19 -17 20 -16 39 26
29 65 69 96 182 139 125 47 143 58 183 115 34 49 56 55 88 23 l20 -20 -20 -32
c-41 -64 -91 -173 -107 -237 -36 -138 -14 -345 50 -486 43 -93 211 -337 269
-390 180 -165 448 -200 642 -84 72 44 232 194 297 280 57 74 190 336 236 462
83 229 82 423 -3 593 -65 132 -173 226 -306 266 -48 15 -69 26 -69 37 0 9 -15
32 -34 52 -19 19 -37 45 -40 56 -16 52 59 34 229 -57 122 -64 211 -93 265 -84
97 16 241 -35 351 -126 66 -54 135 -97 142 -89 2 3 0 42 -4 88 -10 98 -31 151
-93 230 -25 33 -54 81 -66 108 -92 208 -149 275 -420 501 -84 69 -86 70 -155
76 -38 3 -135 25 -215 47 -151 43 -258 56 -337 41 -28 -5 -54 -4 -80 5 -46 16
-36 17 -103 -5z m-76 -1223 c14 -22 2 -43 -98 -171 -152 -196 -149 -193 -180
-179 -52 24 -27 112 69 239 69 93 122 135 164 131 19 -2 39 -11 45 -20z m310
-264 c25 -9 19 -51 -11 -83 -29 -30 -161 -91 -199 -91 -35 0 -49 24 -34 61 16
38 59 71 130 97 58 22 88 26 114 16z"/>
<path d="M12036 30368 c-18 -41 -21 -115 -6 -138 11 -18 12 -16 33 40 21 56
21 90 3 116 -14 18 -15 17 -30 -18z"/>
<path d="M38555 29582 c-49 -49 -124 -111 -166 -139 -102 -69 -106 -80 -63
-209 36 -110 21 -162 -56 -193 -24 -9 -23 -10 10 -10 89 -2 150 -43 150 -102
0 -37 -28 -61 -93 -82 -54 -17 -97 -51 -83 -65 4 -4 50 -6 102 -4 70 2 102 -2
124 -13 17 -9 30 -20 30 -25 0 -10 -6 -12 -112 -36 -80 -18 -94 -34 -30 -34
38 0 103 -27 109 -46 2 -5 -27 -19 -63 -30 -73 -21 -90 -37 -80 -77 10 -41 42
-43 116 -8 75 36 120 39 236 15 115 -22 116 -24 34 -45 -153 -40 -280 -125
-280 -188 0 -44 14 -50 109 -44 86 6 213 -12 279 -39 l27 -11 -40 -13 c-25 -8
-64 -10 -101 -7 -34 3 -97 2 -139 -2 -87 -8 -118 -28 -113 -72 3 -23 10 -28
55 -38 66 -15 75 -23 125 -108 30 -52 37 -72 29 -80 -7 -7 -44 -14 -84 -17
l-72 -5 0 -52 c0 -28 -3 -54 -7 -58 -4 -4 -30 -9 -58 -10 -63 -4 -92 -26 -88
-69 3 -27 9 -33 48 -46 44 -15 153 -88 176 -119 16 -21 10 -31 -36 -63 -50
-35 -52 -64 -7 -115 18 -21 49 -64 69 -95 l35 -58 -14 -52 c-9 -35 -13 -90
-11 -163 4 -126 23 -180 97 -273 24 -30 40 -56 37 -59 -9 -10 -63 -5 -85 6
-24 13 -78 14 -86 2 -9 -15 82 -101 175 -166 97 -67 258 -194 279 -218 20 -25
16 -65 -9 -93 -33 -34 -58 -30 -123 17 -62 44 -156 89 -187 89 -25 0 -40 -29
-40 -78 0 -43 10 -56 54 -66 51 -12 100 -73 135 -166 44 -117 93 -154 125 -92
23 45 48 60 113 71 103 16 108 21 116 129 3 35 11 60 23 73 19 19 21 19 84
-16 69 -37 110 -44 129 -21 6 7 15 62 20 122 9 110 15 137 35 163 6 8 12 63
13 125 2 139 34 302 102 521 58 190 92 405 73 460 -7 17 -16 63 -21 101 -16
126 -45 153 -146 132 -75 -15 -90 -1 -98 90 -3 37 -20 112 -37 167 -26 82 -32
119 -34 205 -2 127 -12 150 -119 272 -113 130 -127 151 -127 189 1 19 7 45 15
59 19 34 19 76 -1 84 -9 3 -35 6 -59 6 -23 0 -64 9 -90 21 -38 17 -58 20 -101
14 -49 -6 -56 -4 -79 19 -48 48 -30 93 55 136 63 32 85 58 75 91 -4 11 -66 65
-139 119 -150 113 -216 188 -216 247 0 46 13 67 57 94 57 34 83 60 83 84 0 26
-29 55 -56 55 -10 0 -59 -40 -109 -88z"/>
<path d="M5947 29262 c-34 -37 -35 -36 197 -187 160 -104 180 -115 194 -101
14 13 13 19 -12 54 -15 22 -44 53 -64 69 -57 46 -271 183 -286 183 -7 0 -20
-8 -29 -18z"/>
<path d="M12253 29058 c-77 -85 -74 -214 8 -329 21 -30 94 -89 110 -89 13 0
-12 50 -48 98 -18 24 -33 52 -33 62 0 10 18 44 39 76 53 79 57 99 29 154 -19
37 -29 46 -53 48 -22 2 -37 -4 -52 -20z"/>
<path d="M4525 29010 c-16 -3 -30 -7 -30 -10 0 -3 11 -50 24 -105 17 -74 31
-110 53 -135 24 -29 30 -32 38 -20 18 28 11 111 -14 169 -14 31 -28 67 -33 81
-7 22 -12 25 -38 20z"/>
<path d="M12512 28908 c-17 -17 -15 -73 3 -88 12 -10 20 -9 40 4 41 27 30 96
-15 96 -9 0 -21 -5 -28 -12z"/>
<path d="M12323 28517 c-55 -21 -57 -29 -19 -88 58 -90 65 -97 96 -104 41 -9
56 6 63 61 4 35 0 55 -16 83 -35 63 -59 72 -124 48z"/>
<path d="M39521 27932 c-17 -33 -13 -48 20 -76 38 -33 93 -36 109 -6 19 36
-24 87 -83 97 -29 4 -37 2 -46 -15z"/>
<path d="M32190 27778 c-61 -9 -154 -53 -305 -143 l-100 -60 -87 -1 c-115 -2
-150 -20 -286 -146 -112 -104 -193 -164 -252 -189 -24 -10 -75 -14 -165 -14
-120 0 -134 -2 -188 -27 -31 -15 -73 -44 -92 -65 -43 -46 -99 -159 -115 -232
-12 -53 -10 -221 6 -398 6 -63 3 -84 -22 -160 -20 -64 -28 -109 -29 -164 0
-67 4 -83 37 -150 23 -46 70 -113 123 -174 47 -55 99 -126 116 -157 112 -219
59 -457 -136 -605 -39 -29 -74 -64 -79 -77 -6 -16 -5 -61 4 -126 11 -82 11
-111 1 -148 -15 -56 -49 -103 -95 -131 -41 -26 -59 -52 -88 -128 -16 -45 -41
-78 -108 -148 -265 -276 -960 -1046 -960 -1064 0 -31 47 -61 96 -61 36 0 53 8
106 48 35 27 102 72 150 100 48 29 125 83 172 120 47 37 133 97 191 132 285
175 326 208 512 417 66 73 79 83 154 113 147 60 229 159 309 375 l42 113 99
51 c55 28 113 51 129 51 43 0 63 -44 55 -114 -5 -41 -3 -56 9 -69 41 -41 619
-357 653 -357 12 0 40 16 63 35 23 19 44 35 47 35 20 0 47 -30 81 -92 22 -40
86 -130 142 -199 l102 -127 56 -7 c76 -9 117 -27 168 -75 24 -22 52 -40 62
-40 11 0 36 14 57 30 47 37 82 47 101 29 7 -8 33 -50 56 -94 42 -77 45 -80 78
-79 19 1 54 9 78 18 36 14 48 14 70 4 26 -13 39 -30 122 -163 37 -60 82 -95
122 -95 32 0 109 50 136 87 18 25 32 32 88 41 104 17 123 46 83 125 -53 103
-92 130 -214 142 -82 8 -84 9 -266 127 -247 158 -367 215 -528 248 -58 12
-107 28 -130 44 -20 14 -308 213 -640 443 -543 376 -605 422 -615 453 -7 20
-30 60 -53 90 -49 67 -49 67 -68 190 -8 55 -22 115 -31 132 -26 50 -24 160 4
222 33 74 73 117 287 312 l196 177 53 111 c59 125 98 170 222 262 43 32 98 74
122 93 50 42 117 137 127 181 5 23 12 30 31 30 34 0 78 24 96 52 14 24 78 180
94 233 7 21 24 38 57 56 99 54 136 111 163 256 25 138 6 169 -131 208 -32 10
-86 33 -120 51 -70 39 -148 53 -225 42z"/>
<path d="M29993 27306 c-24 -8 -59 -23 -79 -35 -19 -12 -68 -26 -107 -31 -95
-14 -122 -33 -122 -91 0 -49 -3 -46 125 -100 79 -33 164 -97 303 -227 43 -40
97 -82 120 -93 117 -52 257 14 257 122 0 20 -9 66 -20 101 -31 101 -190 287
-288 337 -53 27 -135 35 -189 17z"/>
<path d="M6091 25862 c-6 -11 -11 -27 -11 -35 0 -8 -9 -22 -20 -32 -32 -29
-24 -52 32 -90 60 -40 85 -43 142 -15 23 10 83 31 135 44 110 30 130 44 113
80 -12 28 -26 31 -167 46 -55 5 -125 13 -156 16 -51 6 -58 4 -68 -14z"/>
<path d="M39131 24861 l-24 -19 22 -7 c26 -8 26 -8 35 23 9 27 -1 28 -33 3z"/>
<path d="M4207 24745 c-10 -38 -25 -97 -33 -130 -14 -60 -32 -365 -20 -354 3
3 11 41 17 85 6 43 22 125 35 182 19 79 24 124 22 195 l-3 92 -18 -70z"/>
<path d="M38290 22681 c-30 -9 -64 -22 -74 -28 -19 -10 -19 -11 0 -21 11 -6
56 -13 100 -17 l81 -7 11 28 c5 16 13 37 17 47 6 15 1 17 -36 16 -24 0 -69 -8
-99 -18z"/>
<path d="M38235 22521 c-33 -14 -105 -98 -105 -124 0 -29 88 -117 117 -117 16
0 25 10 33 38 7 20 28 72 46 115 19 43 34 82 34 87 0 12 -97 12 -125 1z"/>
<path d="M38137 22178 l-44 -52 -107 -12 c-88 -9 -112 -16 -132 -35 -32 -30
-30 -43 10 -68 38 -24 61 -64 77 -140 11 -51 44 -102 80 -121 22 -12 29 2 140
278 60 152 70 185 58 193 -25 16 -36 10 -82 -43z"/>
<path d="M37892 21734 c-17 -20 -35 -57 -42 -83 -25 -100 -34 -116 -65 -121
-17 -3 -41 -12 -55 -20 -14 -9 -38 -22 -55 -31 -34 -17 -45 -58 -21 -79 22
-17 20 -48 -4 -88 -29 -47 -25 -65 19 -100 57 -46 60 -65 17 -112 -33 -37 -38
-51 -51 -145 -2 -22 -8 -59 -11 -82 -12 -78 12 -46 81 110 37 83 82 184 101
222 18 39 70 157 115 263 74 174 80 194 67 210 -9 9 -23 34 -33 55 -9 20 -21
37 -25 37 -5 0 -22 -16 -38 -36z"/>
<path d="M18342 21448 c-55 -55 80 -213 192 -225 25 -3 97 4 163 16 65 11 136
22 158 23 33 3 41 7 43 26 5 33 -24 71 -66 89 -36 15 -37 15 -126 -32 -52 -27
-105 -48 -124 -48 -36 -1 -56 16 -140 122 -35 43 -75 54 -100 29z"/>
<path d="M37523 20679 c-30 -9 -50 -25 -41 -35 3 -2 18 -6 34 -10 26 -5 32 -2
42 21 18 40 19 40 -35 24z"/>
<path d="M37477 20532 c-10 -11 -34 -23 -53 -27 -46 -8 -51 -26 -23 -80 l24
-45 38 76 c39 78 45 111 14 76z"/>
<path d="M37265 20189 c-86 -13 -85 -12 -85 -70 0 -28 -7 -93 -16 -144 -31
-181 -19 -176 83 35 50 104 88 189 85 189 -4 -1 -34 -5 -67 -10z"/>
<path d="M10845 19828 c-237 -19 -566 -53 -1080 -113 -821 -96 -1101 -123
-1472 -144 -171 -10 -198 -16 -222 -45 -10 -12 -1 -23 61 -67 123 -87 160
-100 275 -97 114 2 132 -6 187 -82 76 -106 179 -164 412 -233 269 -81 384 -83
523 -10 36 19 95 44 131 55 36 11 90 33 120 48 30 15 93 40 140 55 97 32 162
63 205 99 l30 24 -29 11 c-17 7 -57 9 -105 5 -74 -6 -121 3 -121 25 0 4 35 24
78 44 191 90 313 110 370 62 38 -32 93 -55 129 -55 15 0 87 21 158 46 72 25
163 56 204 69 133 43 152 75 82 138 -47 43 -53 51 -45 71 4 11 19 16 50 16 30
0 51 7 69 23 l27 22 -39 21 c-34 18 -48 19 -138 12z"/>
<path d="M37170 19750 c0 -5 14 -24 31 -42 l30 -33 -27 43 c-27 43 -34 49 -34
32z"/>
<path d="M27591 19731 c-21 -14 -6 -89 35 -171 23 -45 65 -102 122 -163 48
-52 133 -143 188 -203 58 -63 133 -132 175 -161 115 -79 376 -223 404 -223 38
0 92 25 120 56 42 45 36 55 -48 69 -32 5 -36 9 -27 21 7 8 18 14 25 14 7 0 18
7 25 15 21 25 0 36 -86 46 -68 7 -82 12 -103 36 -20 23 -22 34 -18 74 l6 46
-42 13 c-110 33 -224 109 -362 242 -129 124 -142 157 -109 277 l7 24 -35 -26
c-45 -34 -93 -35 -173 -2 -65 27 -83 29 -104 16z"/>
<path d="M11490 19445 c-52 -25 -132 -57 -178 -71 -60 -19 -89 -34 -107 -56
-31 -37 -33 -88 -5 -113 29 -26 25 -62 -11 -103 -31 -35 -31 -36 -9 -44 13 -5
49 -2 93 9 40 9 99 18 132 20 33 1 81 4 107 5 25 2 50 -1 55 -6 12 -13 -153
-153 -290 -246 -278 -188 -577 -404 -569 -412 10 -10 177 60 225 96 18 13 88
54 157 91 265 145 280 155 391 267 87 89 118 113 180 142 126 60 264 70 337
26 44 -27 52 -64 19 -98 -13 -15 -34 -45 -45 -67 -19 -38 -64 -85 -161 -169
-105 -92 -241 -288 -241 -349 0 -35 63 -15 128 41 76 66 90 72 162 72 l62 0
69 67 c84 81 86 98 9 98 l-55 0 -3 36 c-3 31 5 45 55 105 78 92 102 135 174
311 33 81 63 153 66 160 4 9 -8 11 -44 7 -38 -5 -53 -2 -72 13 -23 19 -23 21
-10 71 8 33 9 56 3 61 -16 17 -171 33 -209 22 -20 -5 -60 -32 -89 -59 -66 -59
-124 -77 -276 -86 l-105 -6 88 85 c70 67 87 90 82 105 -4 11 -9 20 -13 20 -4
0 -50 -20 -102 -45z"/>
<path d="M10765 19061 c-44 -16 -118 -43 -164 -60 -47 -18 -114 -39 -150 -47
-117 -27 -595 -185 -631 -209 -19 -13 -54 -26 -77 -30 -29 -4 -50 -15 -63 -32
-36 -46 -20 -149 24 -158 12 -2 39 -6 62 -8 54 -6 201 -71 236 -104 38 -37 43
-74 23 -198 -12 -75 -13 -111 -6 -118 16 -16 90 11 131 49 76 69 616 457 877
629 67 44 126 88 133 98 34 55 -140 185 -285 211 -20 4 -58 -4 -110 -23z"/>
<path d="M11650 17788 c-205 -177 -439 -397 -805 -756 -203 -200 -375 -369
-382 -375 -61 -60 -534 -648 -785 -977 -184 -241 -252 -320 -264 -307 -15 15
24 79 158 263 166 228 604 779 720 906 43 49 98 111 120 139 36 46 39 54 28
74 -8 16 -10 42 -6 77 4 30 4 62 0 71 -5 15 -9 14 -36 -8 -16 -13 -48 -29 -71
-35 -112 -28 -116 -30 -136 -69 -28 -54 -44 -64 -116 -70 l-63 -6 -284 -290
c-155 -160 -322 -336 -369 -390 -135 -156 -248 -306 -255 -338 -3 -16 -17 -53
-30 -81 -32 -68 -31 -122 2 -167 14 -19 48 -72 76 -119 57 -94 63 -100 96
-100 22 0 43 18 103 89 28 32 49 40 49 19 0 -7 -18 -42 -40 -78 -55 -90 -53
-107 18 -159 57 -43 179 -109 185 -100 1 2 34 56 71 119 38 63 167 264 286
445 214 326 372 580 424 683 15 29 37 57 49 62 12 5 34 19 48 32 57 49 1349
1520 1343 1529 -11 19 -31 6 -134 -83z"/>
<path d="M7187 17513 c-56 -191 -390 -1275 -406 -1317 -15 -38 -10 -41 19 -12
16 18 35 75 70 214 56 222 143 485 230 697 99 240 122 312 123 380 0 33 -4 68
-9 78 -9 15 -13 8 -27 -40z"/>
<path d="M34465 16956 c-112 -29 -187 -61 -340 -142 -132 -69 -163 -97 -270
-237 -107 -140 -111 -141 -437 -193 -150 -24 -280 -44 -288 -44 -8 0 6 -19 33
-41 90 -77 98 -110 87 -351 -5 -106 -14 -335 -20 -508 -6 -173 -15 -376 -21
-450 -54 -714 -298 -2201 -444 -2705 -97 -335 -352 -943 -602 -1437 -82 -163
-106 -197 -244 -343 -110 -117 -122 -133 -179 -242 -49 -95 -88 -134 -319
-323 -263 -215 -417 -319 -638 -429 -254 -126 -498 -200 -773 -231 -138 -16
-802 -7 -1040 14 -741 66 -1485 215 -2200 440 -99 31 -162 37 -175 16 -2 -4
22 -28 55 -54 78 -62 87 -90 70 -239 -16 -133 -8 -235 25 -333 20 -60 23 -79
14 -96 -14 -25 -4 -196 17 -308 8 -41 19 -174 24 -295 6 -143 18 -277 35 -385
27 -179 57 -403 74 -570 8 -79 18 -120 40 -165 39 -82 42 -100 29 -176 -13
-83 -3 -150 53 -330 40 -126 41 -134 29 -188 -14 -67 -6 -93 43 -148 l34 -38
6 -130 c4 -101 16 -188 55 -385 54 -271 67 -358 78 -510 7 -97 13 -120 44
-155 11 -13 23 -57 33 -120 13 -89 13 -103 -1 -132 -14 -30 -14 -39 16 -150
51 -188 69 -274 107 -503 82 -504 92 -550 110 -550 7 0 16 -7 19 -15 13 -35
37 -216 31 -237 -5 -19 -4 -20 5 -8 9 12 11 9 6 -16 -3 -18 -2 -34 1 -38 3 -3
8 -21 10 -38 1 -18 12 -62 22 -98 11 -36 67 -254 126 -485 59 -231 110 -427
113 -435 3 -8 4 -21 3 -29 -1 -7 1 -11 6 -8 4 2 17 1 28 -3 29 -10 74 8 81 34
3 12 -2 38 -11 59 -16 40 -15 55 16 149 11 32 19 77 19 101 0 62 29 97 79 97
45 0 62 -16 105 -102 37 -75 69 -95 159 -106 99 -12 163 -71 228 -208 44 -91
55 -169 34 -239 -15 -52 -15 -61 0 -105 l16 -48 27 28 c16 16 53 35 86 44 111
33 136 65 136 176 0 125 -56 250 -149 331 -55 49 -97 71 -172 93 -68 20 -115
53 -151 108 -58 85 -60 164 -8 233 17 22 52 83 77 135 25 52 61 116 80 142
l34 47 -15 71 c-25 124 2 155 114 132 33 -7 65 -10 70 -7 14 9 13 102 -1 128
-7 12 -22 35 -35 50 -58 70 -49 142 33 243 86 107 113 153 113 195 0 45 -35
91 -91 119 -60 31 -79 80 -31 80 30 0 76 25 137 75 74 60 94 66 213 63 101 -3
111 -1 146 22 46 31 109 122 132 192 43 134 100 211 223 301 53 39 128 96 166
127 102 83 200 146 257 167 112 40 200 159 214 289 4 39 14 74 24 87 17 21 25
22 132 19 87 -3 125 1 163 14 69 23 130 67 171 124 31 43 38 48 85 53 82 10
182 66 338 191 207 165 292 206 431 206 111 0 186 50 284 187 97 136 224 217
366 232 47 6 132 15 190 21 62 7 208 38 355 75 138 35 298 72 356 83 72 14
129 32 178 56 42 22 96 40 134 45 150 21 425 118 629 222 132 68 158 85 733
480 232 159 354 236 409 259 152 63 228 125 476 385 53 55 139 141 191 190 80
76 108 111 174 220 110 184 204 318 279 403 94 107 110 145 112 266 l1 99 64
53 c35 29 140 100 233 159 129 81 175 105 193 100 40 -10 89 -63 118 -127 16
-35 43 -85 62 -112 41 -60 45 -112 10 -144 -32 -30 -54 -28 -117 14 -67 43
-98 41 -177 -11 -80 -53 -87 -87 -37 -187 33 -65 30 -97 -10 -154 -64 -92 -94
-149 -131 -254 -84 -237 -169 -350 -362 -484 -73 -51 -90 -68 -101 -101 -27
-80 -26 -134 3 -215 15 -41 29 -92 32 -113 5 -37 3 -41 -72 -110 -90 -84 -143
-155 -214 -289 -29 -53 -57 -101 -64 -106 -7 -5 -41 -12 -77 -14 -91 -5 -117
-26 -176 -140 -26 -51 -66 -113 -89 -138 -23 -25 -55 -65 -70 -90 -56 -92
-107 -132 -181 -145 -25 -4 -51 -16 -65 -31 -22 -24 -23 -26 -11 -108 7 -46
10 -91 6 -99 -3 -8 -22 -18 -42 -22 -73 -14 -125 -51 -236 -169 -112 -120
-150 -148 -231 -166 -32 -7 -65 -26 -110 -65 -64 -54 -112 -74 -170 -71 -40 1
-44 -29 -15 -115 26 -73 23 -94 -16 -111 -22 -10 -36 -9 -87 10 -105 37 -131
29 -178 -54 -35 -61 -58 -76 -141 -94 -79 -16 -99 -42 -96 -126 3 -95 -10
-109 -108 -110 -102 0 -152 -25 -269 -134 -49 -45 -131 -115 -184 -155 -112
-85 -173 -147 -226 -228 -78 -120 -143 -152 -283 -142 -56 4 -97 3 -116 -4
-34 -14 -213 -130 -273 -178 -64 -51 -273 -307 -273 -334 0 -13 12 -35 26 -50
48 -50 42 -59 -206 -280 -96 -86 -202 -186 -234 -224 -33 -37 -125 -120 -205
-184 -153 -123 -191 -167 -311 -371 -73 -125 -97 -245 -69 -355 14 -56 -5 -96
-66 -145 -25 -19 -45 -38 -45 -41 0 -3 34 -9 76 -12 116 -10 148 9 187 113 9
25 26 51 36 57 17 11 123 33 159 33 20 0 14 -39 -9 -58 -81 -65 -76 -58 -55
-81 26 -29 55 -26 129 10 86 42 110 37 141 -33 l23 -52 7 37 c9 49 56 101 104
115 22 7 66 12 99 12 77 0 115 -25 158 -102 17 -32 34 -56 36 -53 3 2 158 58
344 123 490 172 1349 498 1560 592 22 10 94 41 160 68 948 395 2077 958 2885
1440 102 60 200 118 218 128 296 171 1123 728 1487 1003 513 385 1039 851
1329 1175 166 186 231 295 303 515 71 215 96 443 83 742 -14 302 -57 587 -141
924 -109 435 -346 1111 -542 1540 -33 72 -78 173 -102 225 -71 160 -250 518
-319 642 -36 65 -66 125 -66 133 0 10 -13 -1 -32 -26 -37 -48 -196 -143 -302
-180 -73 -25 -226 -36 -288 -21 -63 16 -573 280 -687 356 -53 35 -121 86 -149
111 l-52 47 0 -99 c0 -54 9 -186 20 -293 35 -341 25 -517 -38 -686 -17 -43
-33 -90 -37 -104 -31 -108 -121 -206 -295 -321 -304 -203 -620 -340 -984 -428
-187 -46 -239 -55 -235 -44 2 4 39 78 81 163 106 212 131 299 131 460 0 160
-24 246 -129 460 -42 85 -81 166 -88 179 -31 67 -278 211 -431 252 -183 48
-424 35 -650 -38 -232 -75 -347 -159 -583 -428 -202 -230 -210 -237 -401 -342
-96 -53 -207 -109 -248 -124 -120 -45 -155 -77 -155 -145 0 -46 27 -73 104
-103 64 -25 80 -45 148 -182 103 -203 140 -408 109 -599 -14 -93 -48 -202 -68
-223 -21 -21 -154 -48 -381 -76 -255 -32 -420 -41 -736 -41 -269 0 -292 1
-307 18 -38 41 -15 58 153 117 110 38 154 48 234 53 89 7 100 10 121 34 30 35
49 139 35 190 -6 20 -26 58 -45 85 -112 154 -117 163 -113 231 3 60 2 63 -27
81 -39 23 -83 75 -91 107 -11 45 7 78 81 149 86 81 100 109 86 175 -18 85 -30
294 -33 585 -3 324 -7 307 73 408 32 40 39 57 39 94 0 53 -7 68 -76 151 -124
151 -175 329 -190 664 -9 195 -12 190 166 242 63 18 110 59 135 120 14 33 16
59 10 150 -8 131 8 242 55 380 16 50 30 99 30 111 0 11 -18 73 -40 137 -52
150 -78 269 -86 393 -5 83 -1 137 25 315 66 461 79 611 87 995 6 327 5 369
-12 460 -11 55 -19 134 -19 175 1 131 39 176 175 205 41 9 87 22 104 30 38 19
49 19 69 -2 31 -36 31 -69 -3 -150 -98 -234 -134 -402 -134 -618 0 -170 16
-269 70 -435 43 -134 85 -202 208 -340 160 -178 256 -250 471 -355 178 -87
224 -100 365 -99 171 0 311 46 546 179 61 35 129 71 150 80 51 22 139 22 188
1 59 -25 102 -20 170 18 34 18 72 37 86 41 43 13 150 95 177 137 52 77 34 149
-89 356 -71 120 -80 162 -52 243 29 85 24 193 -15 309 -17 52 -43 115 -57 140
-14 25 -46 115 -70 200 -90 316 -160 455 -296 587 -46 45 -76 62 -231 128 -98
42 -200 93 -227 113 -75 57 -129 74 -250 78 -87 4 -120 0 -195 -20z m-6125
-13976 c22 -22 27 -69 8 -88 -16 -16 -53 -15 -66 1 -20 25 -24 74 -7 91 22 21
41 20 65 -4z"/>
<path d="M9166 16881 c-3 -4 -53 -41 -111 -81 -59 -40 -124 -93 -145 -117 -45
-52 -65 -118 -52 -178 6 -27 4 -56 -5 -90 -40 -153 11 -627 71 -667 33 -22 64
-7 132 65 113 118 301 366 324 426 29 76 103 184 161 234 27 23 49 49 49 57 0
8 21 42 45 74 25 33 45 65 45 72 0 7 -9 37 -21 66 -12 31 -18 64 -15 80 5 23
2 28 -15 28 -23 0 -56 -32 -82 -79 -14 -26 -22 -32 -40 -28 -12 3 -58 13 -102
22 -104 23 -131 37 -155 85 -17 33 -26 40 -50 40 -16 0 -31 -4 -34 -9z"/>
<path d="M10834 16670 c-47 -19 -313 -362 -589 -760 -259 -372 -580 -874 -591
-923 -7 -34 13 -57 49 -57 11 0 58 -15 106 -34 83 -33 241 -63 272 -51 8 3 82
9 165 13 132 7 157 11 199 32 40 21 50 32 61 68 16 55 34 75 116 128 52 33 83
65 143 145 151 198 276 437 305 584 14 67 7 148 -16 203 -12 29 -14 57 -8 133
6 93 -2 139 -25 139 -5 0 -34 -49 -65 -109 -36 -70 -69 -121 -96 -145 -39 -35
-82 -47 -95 -26 -4 6 24 75 60 153 111 235 148 372 125 458 -14 52 -60 72
-116 49z"/>
<path d="M6766 16140 c-16 -46 -156 -511 -156 -517 1 -4 38 91 84 212 46 121
88 231 94 245 7 19 6 33 -3 50 -10 19 -15 21 -19 10z"/>
<path d="M8574 15599 c-98 -117 -356 -433 -573 -703 -528 -658 -631 -779 -940
-1110 -128 -137 -207 -213 -253 -243 -43 -28 -87 -69 -119 -111 -87 -111 -105
-127 -356 -319 -134 -101 -243 -186 -243 -189 0 -18 24 -44 40 -44 21 0 347
191 415 243 22 17 72 61 110 97 51 49 80 69 107 74 101 19 353 266 741 726
534 634 1196 1407 1224 1431 16 13 43 45 61 70 l34 46 -8 109 c-7 112 -14 134
-43 134 -10 0 -95 -92 -197 -211z"/>
<path d="M8734 15353 c-16 -21 -62 -74 -103 -118 -103 -112 -297 -338 -731
-855 -205 -245 -407 -481 -449 -526 -135 -144 -191 -212 -191 -231 0 -13 12
-23 37 -32 49 -18 127 -92 162 -155 16 -28 43 -89 61 -134 37 -93 38 -94 144
-110 56 -9 75 -17 100 -42 28 -28 31 -37 34 -110 4 -85 16 -106 52 -95 33 11
42 38 24 81 -18 44 -12 63 40 128 102 125 195 305 196 377 0 49 38 215 76 330
47 146 111 293 241 553 94 188 103 211 94 237 -16 47 25 154 171 445 81 162
129 268 125 278 -11 29 -53 19 -83 -21z"/>
<path d="M6501 15280 c-12 -39 -21 -73 -19 -76 7 -6 50 124 46 136 -2 7 -14
-21 -27 -60z"/>
<path d="M8821 15158 c-10 -24 -78 -164 -151 -313 -150 -306 -166 -344 -179
-418 -5 -28 -39 -131 -76 -227 -86 -226 -259 -741 -329 -987 -61 -210 -62
-236 -10 -249 15 -4 49 -2 77 5 56 13 77 4 77 -34 0 -32 -13 -40 -119 -65
-119 -30 -141 -50 -175 -164 -42 -136 -34 -164 58 -217 81 -45 90 -58 81 -124
-7 -63 3 -85 41 -85 47 0 80 82 53 132 -28 52 -4 174 39 196 19 10 177 -9 239
-28 77 -25 83 -33 83 -111 0 -60 -6 -84 -35 -148 -19 -43 -46 -127 -60 -187
-14 -60 -38 -144 -52 -186 -26 -75 -26 -78 -8 -98 32 -35 52 -25 75 36 13 37
18 67 14 88 -11 61 13 115 85 191 52 54 70 81 79 118 7 26 38 89 70 140 74
117 159 266 166 292 3 11 10 90 16 175 13 184 35 335 89 611 22 112 47 265 56
339 8 74 25 198 36 275 34 225 13 385 -70 541 -36 66 -39 79 -43 170 -3 70
-13 125 -32 188 -16 49 -31 109 -35 135 -9 64 -34 68 -60 9z"/>
<path d="M5981 13818 c-112 -230 -254 -548 -248 -554 7 -7 162 274 210 381 49
110 140 355 134 361 -2 2 -46 -82 -96 -188z"/>
<path d="M5838 12713 c-31 -9 -56 -25 -72 -46 -25 -32 -50 -87 -40 -87 7 0 53
30 110 72 28 21 53 38 57 38 3 0 -1 -26 -9 -57 -16 -70 -17 -91 -5 -77 9 8 31
119 31 157 0 20 -8 20 -72 0z"/>
<path d="M5851 12484 c0 -11 3 -14 6 -6 3 7 2 16 -1 19 -3 4 -6 -2 -5 -13z"/>
<path d="M5836 12419 c-8 -42 0 -50 9 -9 4 17 5 34 2 36 -2 3 -7 -10 -11 -27z"/>
<path d="M22235 12310 c-60 -50 -123 -101 -140 -114 -16 -13 -68 -45 -115 -71
-93 -51 -141 -92 -164 -139 -13 -27 -24 -34 -88 -50 -65 -17 -80 -26 -144 -85
-39 -36 -118 -93 -175 -127 -57 -33 -140 -82 -184 -108 -44 -26 -125 -78 -180
-116 -111 -77 -272 -163 -382 -205 -40 -14 -75 -30 -78 -35 -12 -19 -182 -110
-328 -175 -88 -39 -158 -74 -158 -78 1 -4 2 -35 3 -69 1 -40 3 -50 5 -27 4 35
7 38 81 69 108 45 496 245 692 358 471 271 931 594 1348 950 107 92 130 113
120 112 -2 0 -52 -41 -113 -90z"/>
<path d="M8280 12323 c-23 -9 -30 -24 -30 -70 0 -50 26 -83 64 -83 30 0 66 43
66 80 0 43 -61 87 -100 73z"/>
<path d="M5762 12100 c0 -14 2 -19 5 -12 2 6 2 18 0 25 -3 6 -5 1 -5 -13z"/>
<path d="M39393 12060 c0 -25 2 -35 4 -22 2 12 2 32 0 45 -2 12 -4 2 -4 -23z"/>
<path d="M5707 11830 c-11 -23 -48 -173 -43 -177 1 -2 15 24 30 57 18 40 26
72 24 98 -3 23 -6 32 -11 22z"/>
<path d="M10463 11615 c-135 -29 -411 -158 -525 -245 -101 -75 -153 -142 -218
-275 -120 -246 -156 -500 -110 -767 29 -171 103 -377 164 -457 42 -55 34 -151
-12 -151 -8 0 -41 12 -73 26 -57 26 -60 26 -79 9 -27 -24 -25 -54 5 -95 54
-74 21 -118 -105 -141 -95 -17 -118 0 -135 102 -7 43 -25 62 -60 62 -35 0 -60
-25 -74 -73 -15 -50 -65 -109 -108 -126 -55 -23 -121 -17 -193 17 -36 17 -93
42 -128 55 -85 32 -173 78 -208 107 -16 13 -37 26 -47 30 -52 19 -242 -57
-297 -120 -21 -23 -30 -44 -30 -68 0 -31 5 -37 48 -59 64 -32 77 -49 141 -179
79 -159 107 -178 330 -220 46 -9 109 -28 140 -43 109 -54 197 -172 230 -308
25 -103 66 -157 203 -268 55 -45 98 -125 98 -182 0 -59 -39 -134 -100 -191
-120 -113 -124 -122 -89 -198 33 -70 31 -153 -6 -280 -33 -112 -30 -138 23
-174 18 -12 37 -23 42 -25 5 -2 4 -22 -3 -45 -10 -40 -9 -47 30 -125 23 -46
49 -100 57 -120 20 -52 43 -49 57 6 12 49 27 60 63 46 44 -16 44 -67 5 -238
-24 -98 -18 -141 22 -182 26 -25 84 -49 95 -38 2 3 -3 28 -12 57 -21 73 -16
105 18 109 25 3 28 -1 48 -65 12 -41 38 -92 65 -128 60 -82 96 -140 111 -183
16 -45 18 -199 3 -293 -10 -62 -8 -81 11 -159 l22 -88 41 -6 c45 -8 52 -2 62
53 4 20 14 44 22 54 19 20 88 23 100 5 4 -7 9 -78 9 -158 3 -228 22 -394 53
-447 14 -25 14 23 -4 397 -8 168 -15 313 -15 323 0 12 8 17 25 17 23 0 25 -4
25 -47 0 -201 33 -618 60 -748 15 -78 18 -84 19 -45 0 24 -4 118 -10 208 -12
161 -1 354 19 374 5 5 14 -54 21 -129 20 -220 22 -229 38 -208 7 11 13 40 13
66 0 32 6 53 17 65 17 16 18 15 25 -17 4 -19 17 -142 28 -274 18 -211 54 -482
66 -494 9 -10 3 103 -22 381 -32 352 -32 388 -6 430 l20 31 7 -32 c5 -23 12
-31 23 -29 19 4 19 8 9 219 -4 69 -15 182 -27 252 -23 146 -23 150 -10 142 28
-17 44 -75 51 -190 9 -146 13 -159 47 -150 73 18 113 77 122 180 l6 70 13 -40
c8 -26 14 -111 16 -240 4 -201 14 -280 40 -318 13 -18 14 -17 21 18 4 21 2
100 -5 175 -10 122 -8 207 5 249 11 34 17 -9 24 -156 5 -103 13 -170 23 -193
l15 -35 11 28 c6 16 11 74 12 130 0 108 11 164 23 117 3 -14 17 -126 31 -249
14 -124 27 -227 30 -229 11 -11 17 83 11 187 -3 64 -2 130 3 146 l9 30 15 -35
c8 -19 18 -78 22 -130 7 -88 25 -160 41 -160 3 0 3 105 -1 234 -4 137 -3 236
2 239 17 11 104 -113 177 -251 111 -211 106 -207 107 -77 1 134 7 114 44 -140
27 -184 67 -374 85 -403 9 -13 10 -10 6 13 -21 117 -58 673 -55 825 l1 45 9
-35 c4 -19 17 -120 28 -224 20 -187 41 -292 68 -351 l14 -30 -6 35 c-11 73
-17 340 -10 425 7 86 8 89 21 60 7 -16 13 -62 14 -102 0 -99 31 -163 45 -95 4
15 10 33 14 41 21 40 28 14 40 -136 7 -87 19 -192 27 -233 20 -93 56 -208 62
-191 5 15 -14 212 -35 346 -14 99 -10 255 7 255 8 0 12 -24 35 -226 19 -159
36 -245 64 -324 19 -53 20 -54 20 -20 1 19 -10 177 -24 350 -14 173 -24 324
-24 335 1 11 10 -7 20 -40 19 -58 26 -113 49 -366 5 -64 19 -142 30 -175 24
-67 43 -94 36 -49 -3 17 -10 120 -16 230 -6 110 -13 214 -15 230 l-4 30 15
-34 c9 -19 24 -99 34 -179 19 -144 42 -236 61 -248 10 -6 8 80 -7 334 -3 61
-2 92 5 92 6 0 11 -2 11 -4 0 -8 91 -614 97 -646 6 -33 7 -34 14 -10 14 49 9
161 -13 267 -11 59 -21 141 -22 180 -1 98 17 114 57 51 27 -43 41 -35 33 20
-6 52 4 78 28 69 11 -4 16 -19 16 -45 0 -42 21 -79 38 -68 7 4 12 25 12 46 0
21 5 51 12 67 11 26 12 21 24 -61 13 -94 51 -261 65 -286 5 -9 9 28 9 90 1 58
5 114 10 125 8 21 10 17 35 -53 3 -8 12 -74 20 -149 10 -88 22 -149 35 -176
l20 -42 -5 110 c-3 61 -9 147 -13 192 -5 45 -6 99 -3 120 l7 38 16 -60 c10
-33 26 -122 37 -198 14 -93 29 -157 46 -194 14 -31 27 -54 29 -52 2 2 -7 85
-20 184 -14 99 -23 189 -21 200 7 49 101 -385 142 -660 14 -93 28 -172 32
-175 12 -11 -7 263 -31 430 -14 96 -28 222 -32 279 l-7 105 32 -23 c67 -48 99
-120 136 -306 13 -66 28 -133 33 -150 8 -25 11 -27 17 -12 8 19 -5 188 -30
392 -16 131 -18 219 -6 250 9 22 14 -6 36 -220 22 -200 52 -354 75 -379 14
-14 23 61 16 127 -3 34 -9 92 -12 130 -4 42 -3 67 3 67 11 0 39 -136 78 -375
28 -174 66 -330 90 -373 16 -27 16 -27 11 -2 -30 137 -106 710 -106 798 0 29
28 29 35 0 3 -13 21 -129 40 -258 43 -290 45 -297 56 -279 12 19 11 134 -2
189 -14 58 -15 172 -2 194 12 22 35 -80 58 -259 21 -158 50 -274 90 -362 19
-40 36 -73 38 -73 2 0 -9 55 -25 123 -15 67 -35 176 -44 242 -8 66 -19 136
-25 155 -15 54 -24 226 -12 233 18 11 57 -141 56 -213 -1 -60 31 -220 72 -350
7 -25 19 -70 25 -100 10 -53 46 -128 56 -118 2 3 -12 72 -31 154 -20 81 -47
229 -60 329 -29 208 -28 198 -15 190 26 -16 52 -93 64 -193 30 -239 112 -663
132 -681 15 -14 -7 228 -36 379 -36 197 -60 384 -59 460 l1 55 15 -35 c9 -19
27 -100 40 -180 24 -139 63 -272 70 -239 2 8 -3 82 -11 164 -8 82 -14 151 -12
153 6 6 65 -164 102 -296 37 -128 58 -185 49 -127 -21 120 -64 449 -60 453 3
3 8 3 11 -1 3 -3 39 -137 79 -297 40 -160 76 -294 79 -297 9 -10 -3 76 -36
247 -21 107 -31 195 -34 285 l-3 130 87 -340 c83 -323 102 -385 121 -385 8 0
-38 197 -73 320 -13 44 -41 359 -33 367 2 1 36 -132 76 -295 41 -163 78 -306
83 -317 17 -39 -2 191 -32 380 -16 105 -29 197 -29 205 1 8 32 -104 69 -250
37 -146 69 -257 69 -248 1 21 -46 420 -59 502 -5 33 -8 62 -6 64 7 7 56 -153
81 -268 14 -63 35 -145 46 -182 20 -67 58 -162 63 -156 2 2 -20 139 -48 306
-29 166 -47 301 -42 299 6 -2 38 -113 72 -248 79 -314 94 -369 107 -369 6 0 7
13 3 33 -20 92 -26 152 -26 251 0 60 3 107 6 103 3 -3 43 -153 88 -333 45
-180 87 -329 94 -332 7 -2 12 3 12 11 0 16 -55 238 -89 365 -11 40 -28 139
-36 220 -9 81 -20 166 -24 189 -5 24 -5 40 -1 38 17 -10 60 -138 75 -221 21
-121 175 -747 186 -758 6 -6 12 -6 18 0 8 8 -56 290 -127 554 -19 71 -35 198
-46 370 -4 63 11 11 92 -310 73 -291 101 -385 112 -385 19 0 18 3 -13 150 -14
66 -42 215 -62 331 -19 116 -46 256 -59 310 -14 54 -23 100 -22 102 6 6 69
-145 110 -266 62 -179 98 -273 103 -269 2 3 -30 138 -70 301 -41 163 -73 296
-70 296 2 0 24 -42 48 -92 52 -110 84 -218 125 -416 16 -81 32 -157 35 -169 5
-23 38 -32 50 -14 3 6 -35 172 -85 370 -49 198 -90 367 -90 376 0 9 9 15 23
15 21 0 25 -9 46 -97 13 -54 38 -154 57 -223 18 -69 41 -163 49 -209 18 -95
46 -174 74 -211 17 -21 15 -6 -14 120 -18 80 -56 236 -84 347 -28 111 -51 209
-51 216 0 14 39 31 48 22 2 -2 38 -136 78 -297 49 -191 76 -319 79 -368 4 -70
29 -198 44 -228 5 -9 13 -6 28 10 l20 23 -53 215 c-29 118 -64 276 -78 350
-25 135 -61 418 -54 425 2 2 55 -202 117 -453 102 -413 128 -498 146 -480 3 3
-22 120 -55 259 -67 277 -105 486 -114 619 -5 76 7 36 113 -380 66 -256 120
-460 120 -455 1 6 -10 68 -24 139 -32 165 -73 457 -80 566 -4 78 4 51 99 -320
57 -223 105 -400 105 -395 0 6 -8 57 -18 115 -22 120 -101 662 -100 682 0 7
51 -187 113 -432 62 -245 116 -457 119 -473 6 -20 13 -27 32 -27 14 0 25 5 25
10 0 6 -63 262 -140 570 -77 308 -140 562 -140 564 0 2 8 6 18 8 16 5 30 -44
126 -429 60 -239 111 -432 113 -429 6 6 -24 273 -53 470 -14 92 -24 172 -22
177 2 5 41 -141 87 -326 46 -184 86 -335 89 -335 11 0 -8 219 -28 325 -12 61
-43 196 -70 301 -67 263 -86 364 -69 375 8 5 16 3 20 -4 3 -7 35 -128 70 -269
35 -142 68 -258 73 -258 18 0 -5 169 -44 325 -22 87 -40 165 -39 174 3 42 133
-404 245 -839 81 -314 84 -322 78 -235 -9 150 -50 362 -140 728 -47 192 -83
354 -81 360 5 16 78 -174 110 -288 31 -107 45 -169 98 -420 70 -329 117 -497
103 -365 -23 221 -52 375 -147 780 -85 362 -86 366 -27 216 70 -180 106 -298
121 -394 12 -75 15 -81 34 -76 11 4 21 7 22 8 1 1 -36 152 -82 336 -46 184
-82 336 -81 337 2 2 19 -32 39 -75 54 -118 100 -282 147 -522 45 -234 70 -340
102 -440 21 -68 109 -263 115 -257 2 2 -71 304 -162 672 -91 367 -164 670
-161 672 5 5 58 -122 95 -229 48 -136 96 -298 170 -573 74 -274 149 -520 157
-512 2 2 -68 296 -156 652 -88 357 -158 650 -156 652 7 7 144 -420 206 -642
101 -361 173 -606 177 -602 1 2 -74 313 -167 692 -94 378 -169 689 -166 692 9
9 35 -54 56 -133 12 -44 32 -92 45 -109 18 -23 55 -156 161 -582 76 -303 140
-550 142 -548 11 10 -77 429 -168 805 -44 178 -69 264 -85 285 -18 24 -23 47
-27 119 l-5 88 18 -33 c38 -76 106 -281 194 -589 93 -320 133 -447 134 -422 1
7 -53 229 -119 493 -67 265 -119 483 -117 485 2 2 20 -31 40 -73 45 -97 100
-266 171 -534 60 -224 118 -395 124 -366 11 54 -50 311 -153 646 -71 231 -128
447 -123 463 8 23 89 -177 138 -337 47 -154 120 -335 135 -335 8 0 0 29 -67
252 -75 254 -113 429 -90 414 33 -20 78 -163 182 -576 61 -245 116 -462 121
-482 9 -36 10 -36 39 -26 17 5 30 11 30 13 0 2 -27 113 -59 247 -53 218 -114
418 -144 473 -6 11 -32 104 -58 208 -34 136 -43 187 -34 187 8 0 17 -15 20
-32 4 -18 15 -49 25 -68 31 -62 77 -209 135 -430 31 -118 72 -262 91 -320 39
-116 82 -214 83 -188 3 50 -83 421 -139 603 -29 96 -52 259 -34 242 11 -10 57
-181 118 -437 24 -102 56 -216 70 -254 25 -66 85 -181 91 -174 5 5 -73 356
-97 438 -12 41 -35 107 -51 145 -30 73 -70 211 -65 225 6 14 48 -9 57 -32 5
-13 19 -66 31 -118 12 -52 35 -138 52 -190 36 -115 150 -422 154 -417 14 14
-114 522 -181 716 -17 50 -22 78 -15 85 6 6 13 6 19 1 5 -6 57 -157 117 -337
66 -200 114 -328 121 -328 18 0 18 5 -37 220 -27 107 -48 195 -47 197 1 1 43
-100 92 -224 50 -124 91 -218 93 -209 8 38 -43 251 -108 448 -72 225 -100 324
-99 354 0 28 121 -277 211 -536 63 -180 77 -214 73 -170 -15 138 -17 181 -11
206 9 35 20 22 40 -47 14 -51 55 -119 56 -94 0 30 -91 370 -114 425 -63 147
-86 224 -86 285 l1 60 58 -170 c31 -93 81 -225 109 -292 29 -66 52 -126 52
-131 0 -6 4 -22 10 -36 13 -35 37 -24 57 26 25 62 47 48 54 -34 4 -45 12 -74
24 -88 31 -34 38 -24 33 44 -4 46 -17 89 -47 154 -27 58 -44 113 -49 153 -14
116 -1 108 53 -36 60 -157 53 -152 143 -108 101 48 114 113 57 283 -35 103
-44 160 -25 160 15 0 56 -80 79 -155 21 -73 54 -135 70 -135 5 0 -4 39 -20 88
-28 80 -79 274 -79 297 0 27 63 -91 96 -179 47 -127 97 -227 101 -204 2 9 -8
44 -22 78 -24 56 -26 100 -6 100 14 0 38 -34 60 -83 27 -63 44 -59 90 17 42
67 69 85 106 68 24 -11 25 -10 25 17 0 40 38 82 109 120 79 42 104 74 98 124
-4 31 0 42 21 66 15 15 36 43 47 62 24 41 53 47 106 24 21 -10 45 -15 55 -11
25 9 10 80 -26 130 -17 22 -30 48 -30 58 0 17 2 17 24 3 30 -20 45 -13 100 44
96 99 172 51 209 -132 9 -42 25 -91 37 -107 l22 -30 38 30 c52 41 89 86 96
117 4 16 -1 45 -15 78 -12 28 -19 59 -15 68 9 24 40 21 58 -5 15 -22 16 -20
16 30 0 39 -5 57 -20 72 -24 24 -38 25 -113 5 -75 -19 -87 -19 -87 3 0 20 39
62 58 62 7 0 21 9 32 20 22 22 21 36 -11 154 -10 38 -17 71 -15 74 3 2 20 -19
38 -47 18 -28 39 -53 46 -56 18 -7 140 62 153 86 5 11 9 40 7 66 -3 43 -1 47
22 52 18 5 33 23 53 61 37 71 32 113 -22 236 -23 51 -41 102 -41 115 0 23 0
22 30 -6 30 -29 47 -67 75 -167 14 -50 20 -58 41 -58 39 0 30 35 -41 176 -36
70 -64 133 -61 141 4 9 14 11 31 7 25 -6 26 -5 18 22 -4 16 -8 54 -8 84 0 71
27 110 101 146 49 24 59 26 92 16 55 -17 106 -64 135 -125 23 -49 51 -76 65
-62 3 2 -2 36 -10 74 -9 39 -13 82 -11 96 5 26 46 65 67 65 14 0 46 52 46 75
0 9 -13 47 -30 85 -35 79 -35 80 -15 80 8 0 27 -19 41 -42 49 -79 63 -77 91
13 25 78 23 88 -24 143 -41 49 -50 93 -31 161 l15 53 -40 93 c-62 150 -60 141
-37 129 11 -6 20 -15 20 -21 0 -12 41 -28 57 -22 8 3 7 12 -5 32 -15 27 -15
30 16 72 18 23 32 53 32 64 0 12 -18 56 -40 98 -40 75 -52 133 -27 125 6 -3
23 -25 37 -50 32 -58 58 -88 89 -99 35 -14 37 -4 7 36 -89 117 -117 262 -76
396 l22 74 24 -30 c14 -17 33 -40 44 -52 51 -62 95 2 88 127 -4 68 -11 88 -71
210 -43 86 -69 153 -73 185 l-6 50 67 -65 c81 -79 95 -104 96 -172 l1 -53 19
40 c16 33 19 56 16 130 -3 81 -9 101 -51 200 -26 61 -54 120 -63 133 -19 31
-12 48 26 55 25 5 31 12 31 31 0 14 -9 31 -21 40 -42 29 -71 88 -99 203 -18
73 -40 133 -59 164 -32 52 -29 61 12 29 14 -11 30 -20 35 -20 22 0 89 222 94
310 l3 45 -55 0 c-30 0 -60 4 -67 8 -7 4 -23 1 -35 -6 -13 -8 -46 -22 -75 -31
-28 -10 -63 -26 -76 -36 -13 -11 -60 -28 -103 -40 -43 -11 -100 -34 -126 -49
-101 -63 -1483 -502 -2028 -645 -640 -168 -1261 -245 -1758 -217 -590 33 -955
106 -1307 262 -96 42 -172 68 -252 86 -27 6 -59 -25 -72 -71 -5 -20 -18 -47
-30 -61 -11 -14 -31 -61 -46 -104 -66 -200 -191 -377 -333 -472 -26 -18 -74
-58 -107 -90 -54 -52 -70 -61 -158 -89 -54 -17 -164 -61 -245 -97 -331 -147
-383 -161 -627 -172 -177 -8 -232 -19 -338 -66 -14 -6 -30 6 -75 55 -31 34
-69 68 -84 76 -45 23 -236 65 -327 71 -65 5 -89 11 -104 26 -39 39 4 142 73
174 33 15 48 34 98 123 135 237 188 369 224 553 32 164 34 241 9 339 -24 93
-136 395 -156 418 -7 8 -27 46 -44 83 -19 40 -42 72 -55 78 -12 6 -35 36 -51
67 -49 92 -144 184 -295 284 -147 97 -328 193 -429 227 -150 51 -317 65 -448
36z m-399 -2335 c14 -5 46 -28 71 -51 39 -36 45 -47 45 -81 0 -21 -7 -54 -14
-73 -13 -31 -19 -35 -53 -35 -78 0 -152 80 -161 174 -4 40 -1 52 13 63 22 15
63 17 99 3z m4050 -101 c33 -38 34 -82 4 -103 -32 -22 -52 -20 -88 10 -44 37
-40 82 10 106 45 23 44 23 74 -13z m-264 -132 c46 -24 80 -74 80 -118 0 -14
-10 -41 -22 -59 -28 -41 -166 -138 -228 -160 -32 -11 -55 -30 -82 -65 -75 -99
-71 -152 14 -173 24 -6 70 -32 103 -57 56 -44 62 -46 114 -43 l55 3 15 -50 15
-50 6 50 c6 53 15 75 31 75 6 0 34 -22 63 -50 58 -55 75 -59 115 -31 60 43
121 39 146 -9 9 -17 27 -69 40 -117 l25 -88 -4 63 c-4 63 1 102 13 102 4 0 21
-20 39 -45 41 -59 85 -85 143 -85 55 0 69 -13 69 -61 0 -48 -24 -76 -80 -92
-30 -8 -50 -22 -59 -39 -14 -24 -11 -41 32 -214 26 -104 47 -204 47 -222 0
-43 -34 -58 -105 -44 -39 8 -56 7 -77 -4 -39 -20 -35 -49 12 -100 22 -24 40
-50 40 -58 0 -8 -12 -28 -26 -45 -26 -31 -26 -33 -14 -96 7 -35 10 -70 8 -77
-3 -7 -8 6 -12 28 -8 43 -31 71 -96 114 -19 13 -48 35 -65 50 -40 36 -59 41
-84 24 -28 -20 -27 -38 10 -113 35 -72 33 -107 -6 -117 -35 -9 -53 1 -61 33
-12 53 -46 164 -50 161 -1 -2 15 -73 36 -158 22 -85 39 -162 39 -170 0 -26
-59 52 -94 125 -18 39 -41 96 -51 127 l-18 58 -18 -30 c-21 -36 -57 -39 -106
-10 -18 11 -34 20 -35 20 -1 0 -1 -35 1 -79 4 -84 -11 -131 -48 -151 -11 -6
-71 -9 -149 -6 -146 4 -173 13 -197 71 -19 45 -26 48 -88 34 -77 -17 -113 -2
-182 77 -31 35 -62 64 -70 64 -7 0 -21 -12 -31 -26 -50 -70 -65 -84 -95 -84
-24 0 -40 10 -71 45 -53 59 -111 95 -226 141 -108 43 -287 157 -320 203 -13
17 -36 38 -53 47 -41 21 -70 8 -92 -43 -32 -71 -27 -68 -112 -67 -44 0 -143 5
-221 11 -124 9 -147 13 -185 36 -52 31 -232 183 -395 332 -67 61 -149 126
-184 145 -35 19 -84 57 -109 85 -25 27 -75 81 -111 120 -174 185 -235 280
-265 414 -17 75 -20 79 -123 154 -24 18 -66 60 -93 95 -58 76 -65 126 -23 167
32 33 55 31 134 -7 87 -43 174 -48 326 -18 69 13 125 18 150 14 48 -7 121 -47
135 -74 14 -25 86 -67 131 -75 23 -4 87 4 185 24 82 17 211 37 288 45 155 17
178 27 206 88 l17 40 23 -47 c26 -54 73 -88 178 -130 86 -35 118 -58 142 -106
11 -21 27 -39 34 -39 8 0 30 17 50 38 l37 37 87 -1 c48 0 112 -4 144 -8 76
-12 102 -3 129 41 12 21 24 40 25 42 2 2 10 -2 18 -8 10 -8 13 -23 9 -45 -7
-45 14 -60 72 -53 25 4 71 20 104 36 l58 30 28 -29 c63 -66 117 -61 184 17 35
41 43 45 122 62 46 10 107 22 134 26 74 10 115 31 170 85 77 75 129 87 205 47z
m94 -1976 c17 -19 31 -59 41 -121 3 -19 8 -50 12 -68 l6 -34 -31 16 c-37 19
-42 32 -42 109 0 34 -7 74 -14 90 -18 33 1 38 28 8z m-3494 -917 c23 -45 25
-59 26 -191 1 -78 -2 -140 -7 -138 -26 17 -68 216 -69 328 0 71 14 72 50 1z
m848 -254 c4 -84 3 -93 -11 -80 -26 26 -37 81 -36 174 l1 91 20 -45 c15 -32
22 -73 26 -140z m5907 93 c35 -41 93 -159 110 -228 16 -63 20 -142 7 -162 -4
-7 -37 78 -79 202 -39 118 -69 215 -67 215 3 0 16 -12 29 -27z m241 -61 c12
-37 38 -106 59 -155 40 -96 50 -169 24 -174 -11 -3 -30 39 -79 179 -35 101
-65 188 -67 195 -4 9 6 15 37 22 3 0 15 -30 26 -67z m124 -67 c49 -98 59 -142
36 -151 -9 -4 -19 -4 -21 -2 -3 3 -27 69 -55 149 -45 130 -48 141 -25 114 14
-16 44 -66 65 -110z m-4983 -407 c-3 -8 -6 -5 -6 6 -1 11 2 17 5 13 3 -3 4
-12 1 -19z m2780 -120 c-3 -8 -6 -5 -6 6 -1 11 2 17 5 13 3 -3 4 -12 1 -19z
m-190 -10 c-3 -8 -6 -5 -6 6 -1 11 2 17 5 13 3 -3 4 -12 1 -19z m-90 -10 c-3
-8 -6 -5 -6 6 -1 11 2 17 5 13 3 -3 4 -12 1 -19z"/>
<path d="M20114 10215 c0 -93 2 -133 3 -88 2 45 2 122 0 170 -1 48 -3 12 -3
-82z"/>
<path d="M5361 10294 c0 -11 3 -14 6 -6 3 7 2 16 -1 19 -3 4 -6 -2 -5 -13z"/>
<path d="M5351 10244 c0 -11 3 -14 6 -6 3 7 2 16 -1 19 -3 4 -6 -2 -5 -13z"/>
<path d="M5342 10200 c0 -14 2 -19 5 -12 2 6 2 18 0 25 -3 6 -5 1 -5 -13z"/>
<path d="M5331 10154 c0 -11 3 -14 6 -6 3 7 2 16 -1 19 -3 4 -6 -2 -5 -13z"/>
<path d="M5321 10114 c0 -11 3 -14 6 -6 3 7 2 16 -1 19 -3 4 -6 -2 -5 -13z"/>
<path d="M20103 9780 c0 -41 2 -58 4 -37 2 20 2 54 0 75 -2 20 -4 3 -4 -38z"/>
<path d="M20092 9520 c0 -19 2 -27 5 -17 2 9 2 25 0 35 -3 9 -5 1 -5 -18z"/>
<path d="M20083 9355 c0 -27 2 -38 4 -22 2 15 2 37 0 50 -2 12 -4 0 -4 -28z"/>
<path d="M20073 9200 c0 -25 2 -35 4 -22 2 12 2 32 0 45 -2 12 -4 2 -4 -23z"/>
<path d="M20063 9065 c0 -22 2 -30 4 -17 2 12 2 30 0 40 -3 9 -5 -1 -4 -23z"/>
<path d="M20052 8940 c0 -19 2 -27 5 -17 2 9 2 25 0 35 -3 9 -5 1 -5 -18z"/>
<path d="M20041 8844 c0 -11 3 -14 6 -6 3 7 2 16 -1 19 -3 4 -6 -2 -5 -13z"/>
<path d="M19463 7565 c4 -11 16 -64 27 -118 12 -55 30 -118 40 -140 24 -56 78
-129 90 -122 17 10 11 62 -10 98 -11 19 -31 65 -44 103 -29 85 -69 166 -92
185 -15 12 -16 12 -11 -6z"/>
<path d="M19290 7491 c0 -7 21 -60 47 -119 39 -91 47 -117 47 -174 1 -97 21
-109 37 -22 13 69 -4 157 -43 221 -35 58 -88 115 -88 94z"/>
<path d="M3430 7295 c-41 -41 -72 -75 -69 -75 2 0 38 34 79 75 41 41 72 75 69
75 -2 0 -38 -34 -79 -75z"/>
<path d="M19465 7090 c-14 -45 26 -160 57 -160 27 0 23 39 -11 115 -17 36 -32
65 -35 65 -2 0 -8 -9 -11 -20z"/>
<path d="M18794 6358 c7 -22 -12 -36 -54 -40 -30 -2 -35 -7 -38 -30 -7 -64 40
-92 88 -51 34 28 39 71 14 113 -8 14 -13 17 -10 8z"/>
<path d="M2123 6259 c-36 -23 -34 -37 6 -73 21 -19 21 -19 21 12 0 17 4 42 10
56 12 31 5 32 -37 5z"/>
<path d="M2690 5670 c91 -85 295 -252 425 -349 61 -45 126 -94 145 -109 38
-28 -111 136 -207 230 -32 31 -83 72 -113 91 -30 19 -113 71 -185 116 l-130
82 65 -61z"/>
<path d="M15301 4474 c0 -11 3 -14 6 -6 3 7 2 16 -1 19 -3 4 -6 -2 -5 -13z"/>
<path d="M18971 4434 c0 -11 3 -14 6 -6 3 7 2 16 -1 19 -3 4 -6 -2 -5 -13z"/>
<path d="M18982 4360 c0 -14 2 -19 5 -12 2 6 2 18 0 25 -3 6 -5 1 -5 -13z"/>
<path d="M18992 4280 c0 -14 2 -19 5 -12 2 6 2 18 0 25 -3 6 -5 1 -5 -13z"/>
<path d="M19002 4185 c0 -16 2 -22 5 -12 2 9 2 23 0 30 -3 6 -5 -1 -5 -18z"/>
<path d="M19012 4080 c0 -19 2 -27 5 -17 2 9 2 25 0 35 -3 9 -5 1 -5 -18z"/>
<path d="M5125 4067 c-22 -5 -67 -17 -100 -27 l-60 -19 50 0 c43 -1 184 -13
440 -36 33 -3 74 -8 90 -11 24 -3 19 2 -25 25 -88 46 -320 86 -395 68z"/>
<path d="M19023 3935 c0 -27 2 -38 4 -22 2 15 2 37 0 50 -2 12 -4 0 -4 -28z"/>
<path d="M5618 3963 c6 -2 18 -2 25 0 6 3 1 5 -13 5 -14 0 -19 -2 -12 -5z"/>
<path d="M5718 3953 c7 -3 16 -2 19 1 4 3 -2 6 -13 5 -11 0 -14 -3 -6 -6z"/>
<path d="M5788 3943 c7 -3 16 -2 19 1 4 3 -2 6 -13 5 -11 0 -14 -3 -6 -6z"/>
<path d="M5868 3933 c7 -3 16 -2 19 1 4 3 -2 6 -13 5 -11 0 -14 -3 -6 -6z"/>
<path d="M5948 3923 c7 -3 16 -2 19 1 4 3 -2 6 -13 5 -11 0 -14 -3 -6 -6z"/>
<path d="M6028 3913 c7 -3 16 -2 19 1 4 3 -2 6 -13 5 -11 0 -14 -3 -6 -6z"/>
<path d="M6098 3903 c6 -2 18 -2 25 0 6 3 1 5 -13 5 -14 0 -19 -2 -12 -5z"/>
<path d="M6178 3893 c7 -3 16 -2 19 1 4 3 -2 6 -13 5 -11 0 -14 -3 -6 -6z"/>
<path d="M6248 3883 c6 -2 18 -2 25 0 6 3 1 5 -13 5 -14 0 -19 -2 -12 -5z"/>
<path d="M6328 3873 c7 -3 16 -2 19 1 4 3 -2 6 -13 5 -11 0 -14 -3 -6 -6z"/>
<path d="M6408 3863 c7 -3 16 -2 19 1 4 3 -2 6 -13 5 -11 0 -14 -3 -6 -6z"/>
<path d="M6478 3853 c7 -3 16 -2 19 1 4 3 -2 6 -13 5 -11 0 -14 -3 -6 -6z"/>
<path d="M6548 3843 c7 -3 16 -2 19 1 4 3 -2 6 -13 5 -11 0 -14 -3 -6 -6z"/>
<path d="M6618 3833 c7 -3 16 -2 19 1 4 3 -2 6 -13 5 -11 0 -14 -3 -6 -6z"/>
<path d="M6698 3823 c7 -3 16 -2 19 1 4 3 -2 6 -13 5 -11 0 -14 -3 -6 -6z"/>
<path d="M6768 3813 c7 -3 16 -2 19 1 4 3 -2 6 -13 5 -11 0 -14 -3 -6 -6z"/>
<path d="M6838 3803 c7 -3 16 -2 19 1 4 3 -2 6 -13 5 -11 0 -14 -3 -6 -6z"/>
<path d="M6908 3793 c7 -3 16 -2 19 1 4 3 -2 6 -13 5 -11 0 -14 -3 -6 -6z"/>
<path d="M6978 3783 c7 -3 16 -2 19 1 4 3 -2 6 -13 5 -11 0 -14 -3 -6 -6z"/>
<path d="M7048 3773 c7 -3 16 -2 19 1 4 3 -2 6 -13 5 -11 0 -14 -3 -6 -6z"/>
<path d="M7118 3763 c7 -3 16 -2 19 1 4 3 -2 6 -13 5 -11 0 -14 -3 -6 -6z"/>
<path d="M7188 3753 c7 -3 16 -2 19 1 4 3 -2 6 -13 5 -11 0 -14 -3 -6 -6z"/>
<path d="M7258 3743 c7 -3 16 -2 19 1 4 3 -2 6 -13 5 -11 0 -14 -3 -6 -6z"/>
<path d="M7328 3733 c7 -3 16 -2 19 1 4 3 -2 6 -13 5 -11 0 -14 -3 -6 -6z"/>
<path d="M7398 3723 c7 -3 16 -2 19 1 4 3 -2 6 -13 5 -11 0 -14 -3 -6 -6z"/>
<path d="M7538 3703 c7 -3 16 -2 19 1 4 3 -2 6 -13 5 -11 0 -14 -3 -6 -6z"/>
<path d="M7608 3693 c7 -3 16 -2 19 1 4 3 -2 6 -13 5 -11 0 -14 -3 -6 -6z"/>
<path d="M7678 3683 c7 -3 16 -2 19 1 4 3 -2 6 -13 5 -11 0 -14 -3 -6 -6z"/>
<path d="M7748 3673 c7 -3 16 -2 19 1 4 3 -2 6 -13 5 -11 0 -14 -3 -6 -6z"/>
<path d="M7818 3663 c7 -3 16 -2 19 1 4 3 -2 6 -13 5 -11 0 -14 -3 -6 -6z"/>
<path d="M7948 3643 c7 -3 16 -2 19 1 4 3 -2 6 -13 5 -11 0 -14 -3 -6 -6z"/>
<path d="M8018 3633 c6 -2 18 -2 25 0 6 3 1 5 -13 5 -14 0 -19 -2 -12 -5z"/>
<path d="M8103 3623 c9 -2 23 -2 30 0 6 3 -1 5 -18 5 -16 0 -22 -2 -12 -5z"/>
<path d="M8173 3613 c9 -2 23 -2 30 0 6 3 -1 5 -18 5 -16 0 -22 -2 -12 -5z"/>
<path d="M8243 3603 c9 -2 23 -2 30 0 6 3 -1 5 -18 5 -16 0 -22 -2 -12 -5z"/>
<path d="M8308 3593 c6 -2 18 -2 25 0 6 3 1 5 -13 5 -14 0 -19 -2 -12 -5z"/>
<path d="M8373 3583 c9 -2 23 -2 30 0 6 3 -1 5 -18 5 -16 0 -22 -2 -12 -5z"/>
<path d="M8438 3573 c6 -2 18 -2 25 0 6 3 1 5 -13 5 -14 0 -19 -2 -12 -5z"/>
<path d="M8508 3563 c7 -3 16 -2 19 1 4 3 -2 6 -13 5 -11 0 -14 -3 -6 -6z"/>
<path d="M8568 3553 c7 -3 16 -2 19 1 4 3 -2 6 -13 5 -11 0 -14 -3 -6 -6z"/>
<path d="M8698 3533 c7 -3 16 -2 19 1 4 3 -2 6 -13 5 -11 0 -14 -3 -6 -6z"/>
<path d="M8768 3523 c7 -3 16 -2 19 1 4 3 -2 6 -13 5 -11 0 -14 -3 -6 -6z"/>
<path d="M8838 3513 c6 -2 18 -2 25 0 6 3 1 5 -13 5 -14 0 -19 -2 -12 -5z"/>
<path d="M8908 3503 c6 -2 18 -2 25 0 6 3 1 5 -13 5 -14 0 -19 -2 -12 -5z"/>
<path d="M8968 3493 c6 -2 18 -2 25 0 6 3 1 5 -13 5 -14 0 -19 -2 -12 -5z"/>
<path d="M9038 3483 c7 -3 16 -2 19 1 4 3 -2 6 -13 5 -11 0 -14 -3 -6 -6z"/>
<path d="M9098 3473 c7 -3 16 -2 19 1 4 3 -2 6 -13 5 -11 0 -14 -3 -6 -6z"/>
<path d="M9158 3463 c7 -3 16 -2 19 1 4 3 -2 6 -13 5 -11 0 -14 -3 -6 -6z"/>
<path d="M9228 3453 c7 -3 16 -2 19 1 4 3 -2 6 -13 5 -11 0 -14 -3 -6 -6z"/>
<path d="M9288 3443 c7 -3 16 -2 19 1 4 3 -2 6 -13 5 -11 0 -14 -3 -6 -6z"/>
<path d="M9358 3433 c7 -3 16 -2 19 1 4 3 -2 6 -13 5 -11 0 -14 -3 -6 -6z"/>
<path d="M9488 3413 c7 -3 16 -2 19 1 4 3 -2 6 -13 5 -11 0 -14 -3 -6 -6z"/>
<path d="M9558 3403 c7 -3 16 -2 19 1 4 3 -2 6 -13 5 -11 0 -14 -3 -6 -6z"/>
<path d="M9618 3393 c7 -3 16 -2 19 1 4 3 -2 6 -13 5 -11 0 -14 -3 -6 -6z"/>
<path d="M9688 3383 c7 -3 16 -2 19 1 4 3 -2 6 -13 5 -11 0 -14 -3 -6 -6z"/>
<path d="M9748 3373 c7 -3 16 -2 19 1 4 3 -2 6 -13 5 -11 0 -14 -3 -6 -6z"/>
<path d="M9818 3363 c7 -3 16 -2 19 1 4 3 -2 6 -13 5 -11 0 -14 -3 -6 -6z"/>
<path d="M9948 3343 c7 -3 16 -2 19 1 4 3 -2 6 -13 5 -11 0 -14 -3 -6 -6z"/>
<path d="M10078 3323 c7 -3 16 -2 19 1 4 3 -2 6 -13 5 -11 0 -14 -3 -6 -6z"/>
<path d="M10208 3303 c7 -3 16 -2 19 1 4 3 -2 6 -13 5 -11 0 -14 -3 -6 -6z"/>
<path d="M18859 2904 c-15 -18 -104 -65 -182 -95 -28 -11 -74 -32 -102 -45
l-50 -26 65 7 c114 13 198 56 260 135 30 37 38 59 9 24z"/>
<path d="M13010 2747 c5 -5 161 -47 176 -47 5 0 -10 9 -31 20 -36 18 -157 41
-145 27z"/>
<path d="M18428 2733 c7 -3 16 -2 19 1 4 3 -2 6 -13 5 -11 0 -14 -3 -6 -6z"/>
<path d="M18010 2714 c-192 -13 -485 -43 -610 -64 -132 -22 460 22 870 64
l125 13 -90 0 c-49 0 -182 -6 -295 -13z"/>
<path d="M13231 2689 c108 -25 401 -68 674 -98 117 -13 485 -34 491 -28 5 5
-148 21 -361 37 -77 6 -183 21 -235 32 -52 12 -118 21 -147 20 -29 -1 -55 3
-58 8 -3 6 -50 10 -104 10 -58 0 -118 6 -147 15 -27 8 -71 14 -99 14 l-50 -1
36 -9z"/>
<path d="M17293 2633 c9 -2 25 -2 35 0 9 3 1 5 -18 5 -19 0 -27 -2 -17 -5z"/>
<path d="M16665 2609 c-181 -21 -462 -31 -940 -35 -286 -2 -677 -7 -870 -12
l-350 -8 280 -5 c384 -6 505 -5 915 3 535 12 1190 44 1190 60 0 10 -130 8
-225 -3z"/>
<path d="M30358 2183 c7 -3 16 -2 19 1 4 3 -2 6 -13 5 -11 0 -14 -3 -6 -6z"/>
<path d="M30045 2124 c-360 -78 -652 -152 -955 -239 -146 -43 -309 -89 -363
-102 -184 -48 -90 -34 154 23 435 100 1444 356 1458 370 12 11 -68 -2 -294
-52z"/>
<path d="M28598 1743 c7 -3 16 -2 19 1 4 3 -2 6 -13 5 -11 0 -14 -3 -6 -6z"/>
<path d="M28428 1703 c7 -3 16 -2 19 1 4 3 -2 6 -13 5 -11 0 -14 -3 -6 -6z"/>
<path d="M28338 1683 c7 -3 16 -2 19 1 4 3 -2 6 -13 5 -11 0 -14 -3 -6 -6z"/>
<path d="M28248 1663 c7 -3 16 -2 19 1 4 3 -2 6 -13 5 -11 0 -14 -3 -6 -6z"/>
<path d="M28188 1653 c6 -2 18 -2 25 0 6 3 1 5 -13 5 -14 0 -19 -2 -12 -5z"/>
</g>
</svg>
